<svg width="385" height="256" viewBox="0 0 385 256" fill="none" xmlns="http://www.w3.org/2000/svg">
<path d="M165.177 15.6135L184.118 0C212.103 1.14617 236.213 15.7843 246.648 24.411C247.494 24.965 248.179 25.5514 248.684 26.1719C248.078 25.6208 247.398 25.0315 246.648 24.411C234.372 16.372 188.165 15.1546 165.177 15.6135Z" fill="#004B8D"/>
<path d="M133.502 58.1671L148.028 31.3553C204.851 16.8168 251.051 30.6727 267.049 39.418C219.184 36.0394 171.384 62.1131 153.467 75.5723L133.502 58.1671Z" fill="#E54D24"/>
<path d="M117.952 41.0816L148.027 31.0352L133.502 58.2948L153.339 75.7001C150.369 75.4953 133.246 92.5934 125.055 101.168C123.673 84.5307 130.11 65.6537 133.502 58.2948C126.335 53.6876 120.149 44.8996 117.952 41.0816Z" fill="#E54D24" fill-opacity="0.43"/>
<path d="M5 161.543L14.25 158.293C19.8333 167.96 28.5 172.793 40.25 172.793C46.75 172.793 52.0417 171.21 56.125 168.043C60.2083 164.876 62.25 160.543 62.25 155.043C62.25 152.293 61.6667 149.876 60.5 147.793C59.3333 145.626 57.4583 143.751 54.875 142.168C52.375 140.585 50.0417 139.335 47.875 138.418C45.7083 137.501 42.75 136.418 39 135.168C36 134.168 33.875 133.46 32.625 133.043C31.375 132.626 29.375 131.876 26.625 130.793C23.9583 129.71 21.9583 128.751 20.625 127.918C19.375 127.085 17.7917 125.96 15.875 124.543C13.9583 123.043 12.5417 121.543 11.625 120.043C10.7917 118.543 10 116.751 9.25 114.668C8.58333 112.501 8.25 110.21 8.25 107.793C8.25 100.376 11.0833 94.4596 16.75 90.043C22.4167 85.543 30 83.293 39.5 83.293C46.75 83.293 53.0417 84.9596 58.375 88.293C63.7917 91.6263 67.6667 95.793 70 100.793L61.5 103.793C56.5833 95.793 49.1667 91.793 39.25 91.793C32.75 91.793 27.6667 93.2513 24 96.168C20.3333 99.0846 18.5 102.96 18.5 107.793C18.5 109.96 19 112.001 20 113.918C21 115.751 22.0833 117.251 23.25 118.418C24.5 119.501 26.4583 120.71 29.125 122.043C31.875 123.293 34 124.21 35.5 124.793C37.0833 125.293 39.625 126.126 43.125 127.293C43.9583 127.543 44.5833 127.751 45 127.918C49.0833 129.251 52.5 130.543 55.25 131.793C58 133.043 60.8333 134.71 63.75 136.793C66.6667 138.876 68.8333 141.418 70.25 144.418C71.75 147.335 72.5 150.751 72.5 154.668C72.5 163.085 69.5417 169.668 63.625 174.418C57.7917 179.085 49.9167 181.418 40 181.418C31.5 181.418 24.2917 179.626 18.375 176.043C12.4583 172.46 8 167.626 5 161.543ZM83.125 145.043C83.125 134.543 85.9583 126.043 91.625 119.543C97.2917 112.96 104.625 109.668 113.625 109.668C122.792 109.668 130 112.876 135.25 119.293C140.5 125.626 143.125 133.751 143.125 143.668C143.125 144.835 143.042 146.501 142.875 148.668H92.875C92.875 155.418 94.75 161.21 98.5 166.043C102.25 170.876 107.458 173.293 114.125 173.293C118.458 173.293 122.292 172.293 125.625 170.293C128.958 168.21 131.542 165.46 133.375 162.043L141.625 164.543C139.542 169.46 136.167 173.501 131.5 176.668C126.833 179.835 121.042 181.418 114.125 181.418C104.792 181.418 97.2917 178.085 91.625 171.418C85.9583 164.751 83.125 155.96 83.125 145.043ZM93.125 141.293H133.375C133.375 134.71 131.583 129.168 128 124.668C124.417 120.085 119.625 117.793 113.625 117.793C107.542 117.793 102.625 120.126 98.875 124.793C95.2083 129.46 93.2917 134.96 93.125 141.293ZM158.375 179.168V111.918H167.875V123.418H168C169 120.085 171.458 116.96 175.375 114.043C179.292 111.126 183.958 109.668 189.375 109.668C195.625 109.668 200.75 111.626 204.75 115.543C208.833 119.46 210.875 126.168 210.875 135.668V179.168H201.125V137.293C201.125 124.293 196.458 117.793 187.125 117.793C181.958 117.793 177.5 119.876 173.75 124.043C170 128.21 168.125 133.21 168.125 139.043V179.168H158.375ZM235.125 161.918C235.125 165.085 236.458 167.793 239.125 170.043C241.792 172.21 245.458 173.293 250.125 173.293C256.042 173.293 261.083 171.376 265.25 167.543C269.5 163.71 271.625 158.835 271.625 152.918V143.543C267.958 144.46 262.125 145.543 254.125 146.793C247.625 147.96 242.833 149.751 239.75 152.168C236.667 154.585 235.125 157.835 235.125 161.918ZM225.375 162.668C225.375 150.168 235.042 142.418 254.375 139.418C263.042 138.001 268.792 136.835 271.625 135.918V132.043C271.625 127.876 270.125 124.418 267.125 121.668C264.125 118.918 259.875 117.543 254.375 117.543C250.375 117.543 246.5 118.501 242.75 120.418C239.083 122.251 235.958 124.751 233.375 127.918L227.125 122.668C230.458 118.835 234.458 115.71 239.125 113.293C243.875 110.876 248.875 109.668 254.125 109.668C272.125 109.668 281.125 118.46 281.125 136.043V179.168H271.875V168.168C270.542 171.751 267.792 174.876 263.625 177.543C259.458 180.126 254.542 181.418 248.875 181.418C241.458 181.418 235.667 179.668 231.5 176.168C227.417 172.668 225.375 168.168 225.375 162.668ZM296 145.543C296 134.876 298.708 126.251 304.125 119.668C309.542 113.001 316.833 109.668 326 109.668C332 109.668 337.125 111.418 341.375 114.918C345.708 118.335 348.583 122.418 350 127.168L341.75 129.543C340.5 126.21 338.458 123.418 335.625 121.168C332.875 118.918 329.667 117.793 326 117.793C319.833 117.793 314.917 120.418 311.25 125.668C307.583 130.918 305.75 137.543 305.75 145.543C305.75 154.043 307.667 160.793 311.5 165.793C315.333 170.793 320.167 173.293 326 173.293C329.917 173.293 333.458 172.043 336.625 169.543C339.875 166.96 342.167 164.001 343.5 160.668L351.75 163.293C350 168.293 346.792 172.585 342.125 176.168C337.542 179.668 332.167 181.418 326 181.418C317.083 181.418 309.833 178.168 304.25 171.668C298.75 165.168 296 156.46 296 145.543Z" fill="white"/>
<path d="M4.0625 242.168V212.91H21.7969V215.566H7.1875V226.113H20.3125V228.73H7.1875V242.168H4.0625ZM24.0625 231.504C24.0625 228.223 24.9479 225.566 26.7188 223.535C28.4896 221.478 30.7812 220.449 33.5938 220.449C36.4583 220.449 38.7109 221.452 40.3516 223.457C41.9922 225.436 42.8125 227.975 42.8125 231.074C42.8125 231.439 42.7865 231.96 42.7344 232.637H27.1094C27.1094 234.746 27.6953 236.556 28.8672 238.066C30.0391 239.577 31.6667 240.332 33.75 240.332C35.1042 240.332 36.3021 240.02 37.3438 239.395C38.3854 238.743 39.1927 237.884 39.7656 236.816L42.3438 237.598C41.6927 239.134 40.638 240.397 39.1797 241.387C37.7214 242.376 35.9115 242.871 33.75 242.871C30.8333 242.871 28.4896 241.829 26.7188 239.746C24.9479 237.663 24.0625 234.915 24.0625 231.504ZM27.1875 230.332H39.7656C39.7656 228.275 39.2057 226.543 38.0859 225.137C36.9661 223.704 35.4688 222.988 33.5938 222.988C31.6927 222.988 30.1562 223.717 28.9844 225.176C27.8385 226.634 27.2396 228.353 27.1875 230.332ZM46.1719 231.66C46.1719 228.327 47.0182 225.632 48.7109 223.574C50.4036 221.491 52.6823 220.449 55.5469 220.449C57.4219 220.449 59.0234 220.996 60.3516 222.09C61.7057 223.158 62.6042 224.434 63.0469 225.918L60.4688 226.66C60.0781 225.618 59.4401 224.746 58.5547 224.043C57.6953 223.34 56.6927 222.988 55.5469 222.988C53.6198 222.988 52.0833 223.809 50.9375 225.449C49.7917 227.09 49.2188 229.16 49.2188 231.66C49.2188 234.316 49.8177 236.426 51.0156 237.988C52.2135 239.551 53.724 240.332 55.5469 240.332C56.7708 240.332 57.8776 239.941 58.8672 239.16C59.8828 238.353 60.599 237.428 61.0156 236.387L63.5938 237.207C63.0469 238.77 62.0443 240.111 60.5859 241.23C59.1536 242.324 57.474 242.871 55.5469 242.871C52.7604 242.871 50.4948 241.855 48.75 239.824C47.0312 237.793 46.1719 235.072 46.1719 231.66ZM69.2969 231.66C69.2969 234.316 69.9089 236.426 71.1328 237.988C72.3568 239.551 73.8802 240.332 75.7031 240.332C77.5 240.332 79.0104 239.551 80.2344 237.988C81.4844 236.426 82.1094 234.316 82.1094 231.66C82.1094 228.952 81.4844 226.829 80.2344 225.293C78.9844 223.757 77.474 222.988 75.7031 222.988C73.9062 222.988 72.3828 223.757 71.1328 225.293C69.9089 226.829 69.2969 228.952 69.2969 231.66ZM66.25 231.66C66.25 228.457 67.0703 225.788 68.7109 223.652C70.3776 221.517 72.7083 220.449 75.7031 220.449C78.6719 220.449 80.9896 221.517 82.6562 223.652C84.3229 225.788 85.1562 228.457 85.1562 231.66C85.1562 233.014 84.974 234.329 84.6094 235.605C84.2708 236.882 83.737 238.079 83.0078 239.199C82.3047 240.293 81.3151 241.178 80.0391 241.855C78.7891 242.533 77.3438 242.871 75.7031 242.871C74.0885 242.871 72.6432 242.546 71.3672 241.895C70.1172 241.217 69.1276 240.332 68.3984 239.238C67.6953 238.118 67.1615 236.921 66.7969 235.645C66.4323 234.368 66.25 233.04 66.25 231.66ZM90 242.168V221.152H92.9688V224.316C93.3333 223.353 94.0234 222.467 95.0391 221.66C96.0547 220.853 97.3438 220.449 98.9062 220.449C100.443 220.449 101.615 220.892 102.422 221.777C103.229 222.637 103.854 223.757 104.297 225.137C104.427 224.798 104.635 224.408 104.922 223.965C105.208 223.522 105.612 223.014 106.133 222.441C106.654 221.868 107.344 221.4 108.203 221.035C109.089 220.645 110.052 220.449 111.094 220.449C115.156 220.449 117.188 223.158 117.188 228.574V242.168H114.141V228.809C114.141 226.882 113.88 225.436 113.359 224.473C112.839 223.483 111.849 222.988 110.391 222.988C108.88 222.988 107.617 223.626 106.602 224.902C105.586 226.152 105.078 227.741 105.078 229.668V242.168H102.109V228.77C102.109 224.915 100.833 222.988 98.2812 222.988C96.6927 222.988 95.4167 223.587 94.4531 224.785C93.5156 225.983 93.0469 227.546 93.0469 229.473V242.168H90ZM121.797 231.504C121.797 228.223 122.682 225.566 124.453 223.535C126.224 221.478 128.516 220.449 131.328 220.449C134.193 220.449 136.445 221.452 138.086 223.457C139.727 225.436 140.547 227.975 140.547 231.074C140.547 231.439 140.521 231.96 140.469 232.637H124.844C124.844 234.746 125.43 236.556 126.602 238.066C127.773 239.577 129.401 240.332 131.484 240.332C132.839 240.332 134.036 240.02 135.078 239.395C136.12 238.743 136.927 237.884 137.5 236.816L140.078 237.598C139.427 239.134 138.372 240.397 136.914 241.387C135.456 242.376 133.646 242.871 131.484 242.871C128.568 242.871 126.224 241.829 124.453 239.746C122.682 237.663 121.797 234.915 121.797 231.504ZM124.922 230.332H137.5C137.5 228.275 136.94 226.543 135.82 225.137C134.701 223.704 133.203 222.988 131.328 222.988C129.427 222.988 127.891 223.717 126.719 225.176C125.573 226.634 124.974 228.353 124.922 230.332ZM127.773 217.246L132.188 210.41H136.133L130.43 217.246H127.773ZM145.312 242.168V221.152H148.203V224.199C148.62 223.262 149.31 222.402 150.273 221.621C151.237 220.84 152.474 220.449 153.984 220.449C155.104 220.449 156.094 220.632 156.953 220.996V223.73C156.016 223.366 155.026 223.184 153.984 223.184C152.214 223.184 150.833 223.848 149.844 225.176C148.854 226.504 148.359 228.262 148.359 230.449V242.168H145.312ZM158.555 231.66C158.555 228.327 159.401 225.632 161.094 223.574C162.786 221.491 165.065 220.449 167.93 220.449C169.805 220.449 171.406 220.996 172.734 222.09C174.089 223.158 174.987 224.434 175.43 225.918L172.852 226.66C172.461 225.618 171.823 224.746 170.938 224.043C170.078 223.34 169.076 222.988 167.93 222.988C166.003 222.988 164.466 223.809 163.32 225.449C162.174 227.09 161.602 229.16 161.602 231.66C161.602 234.316 162.201 236.426 163.398 237.988C164.596 239.551 166.107 240.332 167.93 240.332C169.154 240.332 170.26 239.941 171.25 239.16C172.266 238.353 172.982 237.428 173.398 236.387L175.977 237.207C175.43 238.77 174.427 240.111 172.969 241.23C171.536 242.324 169.857 242.871 167.93 242.871C165.143 242.871 162.878 241.855 161.133 239.824C159.414 237.793 158.555 235.072 158.555 231.66ZM180.352 216.426V212.48H184.18V216.426H180.352ZM180.82 242.168V221.152H183.789V242.168H180.82ZM192.422 231.66C192.422 234.316 193.034 236.426 194.258 237.988C195.482 239.551 197.005 240.332 198.828 240.332C200.625 240.332 202.135 239.551 203.359 237.988C204.609 236.426 205.234 234.316 205.234 231.66C205.234 228.952 204.609 226.829 203.359 225.293C202.109 223.757 200.599 222.988 198.828 222.988C197.031 222.988 195.508 223.757 194.258 225.293C193.034 226.829 192.422 228.952 192.422 231.66ZM189.375 231.66C189.375 228.457 190.195 225.788 191.836 223.652C193.503 221.517 195.833 220.449 198.828 220.449C201.797 220.449 204.115 221.517 205.781 223.652C207.448 225.788 208.281 228.457 208.281 231.66C208.281 233.014 208.099 234.329 207.734 235.605C207.396 236.882 206.862 238.079 206.133 239.199C205.43 240.293 204.44 241.178 203.164 241.855C201.914 242.533 200.469 242.871 198.828 242.871C197.214 242.871 195.768 242.546 194.492 241.895C193.242 241.217 192.253 240.332 191.523 239.238C190.82 238.118 190.286 236.921 189.922 235.645C189.557 234.368 189.375 233.04 189.375 231.66Z" fill="white"/>
<line x1="222.5" y1="211.168" x2="222.5" y2="255.168" stroke="white"/>
<path d="M235.562 236.66L238.453 235.645C240.198 238.665 242.906 240.176 246.578 240.176C248.609 240.176 250.263 239.681 251.539 238.691C252.815 237.702 253.453 236.348 253.453 234.629C253.453 233.77 253.271 233.014 252.906 232.363C252.542 231.686 251.956 231.1 251.148 230.605C250.367 230.111 249.638 229.72 248.961 229.434C248.284 229.147 247.359 228.809 246.188 228.418C245.25 228.105 244.586 227.884 244.195 227.754C243.805 227.624 243.18 227.389 242.32 227.051C241.487 226.712 240.862 226.413 240.445 226.152C240.055 225.892 239.56 225.54 238.961 225.098C238.362 224.629 237.919 224.16 237.633 223.691C237.372 223.223 237.125 222.663 236.891 222.012C236.682 221.335 236.578 220.618 236.578 219.863C236.578 217.546 237.464 215.697 239.234 214.316C241.005 212.91 243.375 212.207 246.344 212.207C248.609 212.207 250.576 212.728 252.242 213.77C253.935 214.811 255.146 216.113 255.875 217.676L253.219 218.613C251.682 216.113 249.365 214.863 246.266 214.863C244.234 214.863 242.646 215.319 241.5 216.23C240.354 217.142 239.781 218.353 239.781 219.863C239.781 220.54 239.938 221.178 240.25 221.777C240.562 222.35 240.901 222.819 241.266 223.184C241.656 223.522 242.268 223.9 243.102 224.316C243.961 224.707 244.625 224.993 245.094 225.176C245.589 225.332 246.383 225.592 247.477 225.957C247.737 226.035 247.932 226.1 248.062 226.152C249.339 226.569 250.406 226.973 251.266 227.363C252.125 227.754 253.01 228.275 253.922 228.926C254.833 229.577 255.51 230.371 255.953 231.309C256.422 232.22 256.656 233.288 256.656 234.512C256.656 237.142 255.732 239.199 253.883 240.684C252.06 242.142 249.599 242.871 246.5 242.871C243.844 242.871 241.591 242.311 239.742 241.191C237.893 240.072 236.5 238.561 235.562 236.66ZM259.977 231.504C259.977 228.223 260.862 225.566 262.633 223.535C264.404 221.478 266.695 220.449 269.508 220.449C272.372 220.449 274.625 221.452 276.266 223.457C277.906 225.436 278.727 227.975 278.727 231.074C278.727 231.439 278.701 231.96 278.648 232.637H263.023C263.023 234.746 263.609 236.556 264.781 238.066C265.953 239.577 267.581 240.332 269.664 240.332C271.018 240.332 272.216 240.02 273.258 239.395C274.299 238.743 275.107 237.884 275.68 236.816L278.258 237.598C277.607 239.134 276.552 240.397 275.094 241.387C273.635 242.376 271.826 242.871 269.664 242.871C266.747 242.871 264.404 241.829 262.633 239.746C260.862 237.663 259.977 234.915 259.977 231.504ZM263.102 230.332H275.68C275.68 228.275 275.12 226.543 274 225.137C272.88 223.704 271.383 222.988 269.508 222.988C267.607 222.988 266.07 223.717 264.898 225.176C263.753 226.634 263.154 228.353 263.102 230.332ZM281.773 238.027L284.039 236.699C285.576 239.121 287.659 240.332 290.289 240.332C291.878 240.332 293.141 240.046 294.078 239.473C295.042 238.9 295.523 238.066 295.523 236.973C295.523 236.504 295.406 236.087 295.172 235.723C294.938 235.332 294.677 235.02 294.391 234.785C294.13 234.525 293.648 234.251 292.945 233.965C292.242 233.652 291.656 233.431 291.188 233.301C290.745 233.145 290.003 232.897 288.961 232.559C288.049 232.272 287.268 231.986 286.617 231.699C285.966 231.413 285.289 231.035 284.586 230.566C283.883 230.072 283.336 229.473 282.945 228.77C282.581 228.066 282.398 227.259 282.398 226.348C282.398 224.603 283.102 223.184 284.508 222.09C285.914 220.996 287.841 220.449 290.289 220.449C292.008 220.449 293.583 220.905 295.016 221.816C296.448 222.728 297.477 223.796 298.102 225.02L296.07 226.348C295.523 225.436 294.729 224.655 293.688 224.004C292.672 223.327 291.539 222.988 290.289 222.988C288.701 222.988 287.49 223.301 286.656 223.926C285.849 224.525 285.445 225.345 285.445 226.387C285.445 226.986 285.602 227.533 285.914 228.027C286.227 228.496 286.695 228.913 287.32 229.277C287.971 229.616 288.557 229.889 289.078 230.098C289.625 230.28 290.341 230.514 291.227 230.801C291.982 231.035 292.646 231.257 293.219 231.465C293.818 231.673 294.469 231.96 295.172 232.324C295.875 232.689 296.461 233.079 296.93 233.496C297.398 233.887 297.789 234.395 298.102 235.02C298.414 235.618 298.57 236.27 298.57 236.973C298.57 238.639 297.828 240.046 296.344 241.191C294.885 242.311 292.867 242.871 290.289 242.871C288.414 242.871 286.747 242.454 285.289 241.621C283.831 240.762 282.659 239.564 281.773 238.027ZM301.656 231.66C301.656 228.327 302.503 225.632 304.195 223.574C305.888 221.491 308.167 220.449 311.031 220.449C312.906 220.449 314.508 220.996 315.836 222.09C317.19 223.158 318.089 224.434 318.531 225.918L315.953 226.66C315.562 225.618 314.924 224.746 314.039 224.043C313.18 223.34 312.177 222.988 311.031 222.988C309.104 222.988 307.568 223.809 306.422 225.449C305.276 227.09 304.703 229.16 304.703 231.66C304.703 234.316 305.302 236.426 306.5 237.988C307.698 239.551 309.208 240.332 311.031 240.332C312.255 240.332 313.362 239.941 314.352 239.16C315.367 238.353 316.083 237.428 316.5 236.387L319.078 237.207C318.531 238.77 317.529 240.111 316.07 241.23C314.638 242.324 312.958 242.871 311.031 242.871C308.245 242.871 305.979 241.855 304.234 239.824C302.516 237.793 301.656 235.072 301.656 231.66Z" fill="white"/>
</svg>
