<?xml version="1.0" encoding="UTF-8"?>
<!-- Generator: visioncortex VTracer 0.6.3 -->
<svg version="1.1" xmlns="http://www.w3.org/2000/svg" width="1280" height="342">
<path d="M0 0 C0.8 -0.01 1.6 -0.02 2.43 -0.04 C3.6 -0.04 3.6 -0.04 4.79 -0.04 C5.49 -0.05 6.19 -0.05 6.91 -0.06 C8.94 0.19 8.94 0.19 12.94 2.19 C12.94 8.13 12.94 14.07 12.94 20.19 C10.96 19.86 8.98 19.53 6.94 19.19 C4.59 19.05 2.23 18.97 -0.12 18.94 C-1.31 18.91 -2.5 18.89 -3.72 18.86 C-7.35 19.22 -9.19 19.98 -12.06 22.19 C-13.22 24.63 -13.22 24.63 -13.06 27.19 C-11 29.79 -9.22 30.67 -6.04 31.43 C-4.86 31.73 -4.86 31.73 -3.65 32.03 C-2.82 32.22 -1.98 32.42 -1.12 32.62 C0.6 33.06 2.33 33.49 4.05 33.93 C4.89 34.15 5.73 34.36 6.59 34.58 C14.22 36.56 21.22 39.01 28 43.04 C29.94 44.19 31.91 45.2 33.94 46.19 C34.14 44.93 34.35 43.67 34.56 42.38 C36.87 32.25 42.29 23.98 50.94 18.19 C62.53 12.34 75.03 9.63 87.75 13.62 C96.17 17.15 105.46 25.31 109.06 33.86 C109.5 35.01 109.5 35.01 109.94 36.19 C110.28 35.47 110.62 34.76 110.97 34.03 C116.1 23.89 122.15 17.96 132.94 14.19 C142.86 11.42 154.31 11.76 163.62 16.12 C171.13 20.48 177.78 26.29 180.48 34.79 C181.51 40.2 181.71 45.7 181.94 51.19 C182.65 50.61 182.65 50.61 183.37 50.02 C191.1 43.93 198.86 40.07 208.84 40.05 C210.21 40.05 210.21 40.05 211.6 40.05 C212.53 40.05 213.47 40.06 214.44 40.06 C215.84 40.06 215.84 40.06 217.28 40.05 C218.19 40.05 219.09 40.05 220.03 40.05 C220.85 40.06 221.67 40.06 222.52 40.06 C225.07 40.19 227.45 40.63 229.94 41.19 C228.4 36.28 228.4 36.28 224.88 32.88 C221.29 32.04 217.68 31.35 214.05 30.75 C213.35 30.56 212.65 30.38 211.94 30.19 C210.45 27.22 210.77 24.49 210.75 21.19 C210.74 19.93 210.72 18.67 210.71 17.38 C210.94 14.19 210.94 14.19 212.94 12.19 C222.12 10.92 232.69 12.51 240.31 17.94 C245.16 21.99 249.25 26.44 251.94 32.19 C252.4 31.41 252.86 30.64 253.34 29.84 C260.95 17.68 269.66 11.43 282.94 6.19 C283.97 5.77 283.97 5.77 285.02 5.34 C291.67 3.16 299.12 4.58 305.94 5.19 C305.94 10.47 305.94 15.75 305.94 21.19 C303.81 21.56 301.69 21.93 299.5 22.31 C291.54 24.07 285.74 26.04 281.06 32.96 C277.86 38.85 275.84 43.52 276.94 50.19 C279.19 57.24 282.35 62.17 288.94 65.88 C294.33 67.99 300.24 68.42 305.94 69.19 C305.94 75.13 305.94 81.07 305.94 87.19 C289.77 87.91 275.99 84.45 263.69 73.81 C259.83 70.21 256.69 66.69 253.94 62.19 C253.94 61.53 253.94 60.87 253.94 60.19 C253.28 60.19 252.62 60.19 251.94 60.19 C251.94 68.11 251.94 76.03 251.94 84.19 C245.01 84.19 238.08 84.19 230.94 84.19 C230.61 82.54 230.28 80.89 229.94 79.19 C229.3 79.55 228.67 79.91 228.02 80.28 C221.15 83.7 215.37 84.7 207.75 84.75 C206.92 84.76 206.09 84.78 205.23 84.79 C194.87 84.63 188.28 80.13 180.94 73.19 C180.94 76.82 180.94 80.45 180.94 84.19 C177.48 84.27 174.02 84.33 170.56 84.38 C169.58 84.4 168.59 84.43 167.58 84.45 C166.64 84.46 165.7 84.47 164.73 84.48 C163.86 84.5 162.99 84.51 162.09 84.53 C161.38 84.42 160.67 84.3 159.94 84.19 C157.37 80.33 157.64 77.12 157.63 72.64 C157.6 70.91 157.58 69.18 157.55 67.45 C157.52 64.73 157.5 62.01 157.48 59.29 C157.46 56.66 157.42 54.03 157.38 51.39 C157.38 50.19 157.38 50.19 157.38 48.96 C157.28 43.42 156.21 39.26 153.94 34.19 C151.08 31.64 147.64 31.82 143.9 31.95 C140.85 32.32 139.23 33.15 136.94 35.19 C133.9 40.88 133.47 45.67 133.43 52.06 C133.41 52.98 133.39 53.9 133.37 54.85 C133.32 57.78 133.28 60.7 133.25 63.62 C133.22 65.62 133.18 67.61 133.15 69.6 C133.06 74.46 132.99 79.32 132.94 84.19 C129.31 84.27 125.69 84.33 122.06 84.38 C121.03 84.4 120 84.43 118.93 84.45 C117.45 84.47 117.45 84.47 115.95 84.48 C115.03 84.5 114.12 84.51 113.18 84.53 C112.44 84.42 111.7 84.3 110.94 84.19 C105.93 76.68 108.94 66.21 108.94 57.19 C92.11 56.86 75.28 56.53 57.94 56.19 C62.37 64.1 62.37 64.1 69.58 66.67 C70.36 66.84 71.14 67.01 71.94 67.19 C73.46 67.58 74.98 67.98 76.5 68.38 C77.63 68.64 78.77 68.91 79.94 69.19 C79.94 74.47 79.94 79.75 79.94 85.19 C67.68 85.67 56.84 83.86 46.94 76.19 C43.85 73.16 40.88 70.08 38.94 66.19 C38.73 66.76 38.52 67.32 38.31 67.91 C35.56 74.81 32.17 80.04 25.4 83.47 C10.83 89.46 -8.28 89.66 -23.14 84.46 C-35.7 78.97 -35.7 78.97 -40.06 74.19 C-38.53 70.63 -36.43 68.16 -33.75 65.38 C-32.61 64.16 -32.61 64.16 -31.45 62.92 C-29.06 61.19 -29.06 61.19 -26.6 61.27 C-23.91 62.24 -21.38 63.36 -18.81 64.62 C-9.42 68.97 0.43 70.95 10.62 68.19 C11.39 67.86 12.15 67.53 12.94 67.19 C13.87 62.66 13.87 62.66 12.94 58.19 C7.33 55.1 0.71 53.85 -5.48 52.38 C-18.37 49.31 -28 46.43 -36.06 35.19 C-37.85 29.83 -38.06 24.05 -36.19 18.68 C-31.33 9.29 -23.78 4.78 -14.06 1.19 C-9.43 -0.09 -4.77 0 0 0 Z M219.94 13.19 C223.94 14.19 223.94 14.19 223.94 14.19 Z M60.55 35.86 C59.31 37.64 59.31 37.64 57.94 40.19 C58.93 41.67 58.93 41.67 59.94 43.19 C63.04 43.61 63.04 43.61 66.7 43.48 C67.36 43.48 68.02 43.47 68.7 43.47 C70.82 43.45 72.94 43.41 75.06 43.38 C76.5 43.36 77.93 43.35 79.37 43.33 C82.89 43.3 86.42 43.25 89.94 43.19 C89.33 41.74 88.72 40.29 88.1 38.84 C87.76 38.04 87.41 37.23 87.06 36.4 C85 32.34 82.15 30.59 77.94 29.19 C70.7 28.45 65.34 30.11 60.55 35.86 Z M220.94 41.19 C224.94 42.19 224.94 42.19 224.94 42.19 Z M33.94 46.19 C34.94 49.19 34.94 49.19 34.94 49.19 Z M203.94 58.19 C201.64 61.01 201.64 61.01 202 64.25 C202.61 67.33 202.61 67.33 205.06 68.35 C210.9 70.05 218.33 70.5 224.11 68.39 C226.75 66.68 228.19 64.81 229.94 62.19 C230.18 60.13 230.18 60.13 230.06 58 C230.02 56.74 229.98 55.48 229.94 54.19 C227.1 54.08 224.27 54 221.44 53.94 C220.65 53.9 219.85 53.87 219.04 53.84 C213.25 53.74 208.7 54.76 203.94 58.19 Z M211.94 70.19 C211.94 70.52 211.94 70.85 211.94 71.19 C213.92 71.19 215.9 71.19 217.94 71.19 C217.94 70.86 217.94 70.53 217.94 70.19 C215.96 70.19 213.98 70.19 211.94 70.19 Z " fill="#FAFCFC" transform="translate(974.0625,114.8125)"/>
<path d="M0 0 C2.02 0 4.04 0 6.05 0.01 C10.26 0.01 14.46 0.02 18.67 0.05 C24.06 0.08 29.46 0.09 34.85 0.09 C39.01 0.09 43.17 0.1 47.32 0.12 C49.31 0.12 51.3 0.13 53.29 0.13 C56.06 0.14 58.83 0.15 61.6 0.17 C62.43 0.17 63.25 0.17 64.1 0.17 C69.76 0.21 69.76 0.21 71.99 1.33 C72.53 9.83 70.14 16.79 64.77 23.42 C59.03 29.56 52.5 33.16 44.97 36.73 C41.13 38.79 38.04 41.38 34.83 44.3 C26.84 50.01 17.96 52.35 8.43 54.14 C6.81 54.46 6.81 54.46 5.16 54.79 C-2.59 56.33 -2.59 56.33 -5.01 56.33 C-5.25 56.9 -5.5 57.48 -5.75 58.07 C-8.9 63.74 -14.61 68.18 -20.7 70.27 C-27.76 72.27 -34.78 72.53 -42.07 72.77 C-66.15 73.72 -86.43 79.25 -105.01 95.33 C-105.72 95.94 -106.44 96.54 -107.18 97.17 C-108.8 98.54 -110.4 99.93 -112.01 101.33 C-111.7 100.72 -111.4 100.12 -111.09 99.5 C-110.28 97.87 -109.51 96.23 -108.76 94.58 C-101.88 81.8 -90.64 71.28 -78.01 64.33 C-76.79 63.64 -76.79 63.64 -75.55 62.94 C-63.6 56.54 -51.35 54.15 -37.92 54.23 C-36.97 54.23 -36.03 54.23 -35.06 54.23 C-32.06 54.24 -29.07 54.25 -26.07 54.27 C-24.03 54.27 -21.99 54.28 -19.95 54.28 C-14.97 54.29 -9.99 54.31 -5.01 54.33 C-4.83 53.17 -4.83 53.17 -4.64 51.99 C-4.47 50.99 -4.31 49.99 -4.13 48.95 C-3.97 47.96 -3.81 46.96 -3.64 45.93 C-3.01 43.33 -3.01 43.33 -1.01 41.33 C1.75 40.86 1.75 40.86 5.26 40.55 C6.54 40.43 7.83 40.31 9.15 40.18 C10.51 40.06 11.88 39.95 13.24 39.83 C23.22 38.93 33.09 37.85 42.99 36.33 C43.12 35.38 43.24 34.43 43.37 33.45 C44.04 28.71 45.02 24.02 45.99 19.33 C37.78 19.39 29.56 19.47 21.34 19.56 C17.53 19.61 13.71 19.65 9.89 19.67 C6.2 19.7 2.5 19.74 -1.19 19.79 C-2.59 19.81 -3.99 19.82 -5.38 19.83 C-37.11 19.98 -60.47 34.29 -82.64 55.9 C-94.22 68.11 -104.12 82.18 -112.6 96.68 C-113 97.38 -113.41 98.08 -113.84 98.8 C-114.36 99.72 -114.36 99.72 -114.9 100.65 C-116.09 102.45 -117.44 103.85 -119.01 105.33 C-114.7 81.27 -98.71 57.53 -83.01 39.33 C-82.31 38.51 -81.62 37.7 -80.91 36.86 C-69.43 23.73 -56.78 13.56 -40.88 6.45 C-39.97 6.04 -39.97 6.04 -39.04 5.62 C-26.14 0.15 -13.77 -0.09 0 0 Z M45.99 24.33 C46.99 26.33 46.99 26.33 46.99 26.33 Z M10.99 41.33 C14.99 42.33 14.99 42.33 14.99 42.33 Z M-33.01 55.33 C-33.01 55.66 -33.01 55.99 -33.01 56.33 C-26.08 56.33 -19.15 56.33 -12.01 56.33 C-12.01 56 -12.01 55.67 -12.01 55.33 C-18.94 55.33 -25.87 55.33 -33.01 55.33 Z " fill="#F9FBFB" transform="translate(700.0078125,18.671875)"/>
<path d="M0 0 C1.37 0.33 2.74 0.62 4.12 0.88 C11.48 2.43 18.43 4.8 24 10 C23.01 10 22.02 10 21 10 C-22.66 10.92 -64.51 22.83 -100.91 47.24 C-101.65 47.73 -102.39 48.22 -103.16 48.73 C-103.8 49.17 -104.45 49.6 -105.12 50.06 C-107 51 -107 51 -111 51 C-113.01 49.79 -113.01 49.79 -115.12 48.06 C-115.9 47.43 -116.68 46.8 -117.48 46.14 C-121.74 42.52 -125.91 38.81 -130 35 C-130.61 34.54 -131.22 34.08 -131.85 33.61 C-133 32 -133 32 -132.91 29.26 C-131.86 25.51 -130.31 22.26 -128.44 18.88 C-128.08 18.23 -127.72 17.58 -127.35 16.91 C-126.61 15.58 -125.86 14.25 -125.1 12.93 C-124.39 11.69 -123.69 10.44 -123 9.19 C-117.24 -1.19 -117.24 -1.19 -111.5 -3.06 C-109.67 -3.42 -107.84 -3.73 -106 -4 C-104.25 -4.37 -104.25 -4.37 -102.47 -4.75 C-72.28 -11.02 -28.33 -14.9 0 0 Z M-71 -8 C-71 -7.67 -71 -7.34 -71 -7 C-68.69 -7 -66.38 -7 -64 -7 C-64 -7.33 -64 -7.66 -64 -8 C-66.31 -8 -68.62 -8 -71 -8 Z M-54 -8 C-54 -7.67 -54 -7.34 -54 -7 C-51.69 -7 -49.38 -7 -47 -7 C-47 -7.33 -47 -7.66 -47 -8 C-49.31 -8 -51.62 -8 -54 -8 Z " fill="#FAFCFC" transform="translate(1229,36)"/>
<path d="M0 0 C3.92 1.54 7.23 0.58 11.03 -0.91 C19.45 -4.17 29.55 -5.02 38.07 -1.6 C45.54 2.42 51.31 7.71 54.13 15.84 C55.24 20.21 55.26 24.49 55.23 28.98 C55.23 29.75 55.22 30.52 55.22 31.31 C55.22 33.76 55.2 36.2 55.19 38.65 C55.19 40.31 55.18 41.98 55.18 43.64 C55.17 47.7 55.15 51.77 55.13 55.84 C48.86 55.84 42.59 55.84 36.13 55.84 C34.65 52.89 34.93 49.87 34.88 46.63 C34.85 45.16 34.82 43.69 34.78 42.22 C34.74 39.91 34.69 37.59 34.65 35.28 C34.61 33.04 34.56 30.81 34.51 28.57 C34.5 27.89 34.49 27.2 34.48 26.5 C34.37 22.27 33.75 18.75 32.13 14.84 C29.54 12.63 28.06 12.84 24.63 12.96 C20.77 13.93 19.49 14.69 17.13 17.84 C15.04 22.02 14.79 25.95 14.71 30.54 C14.7 31.27 14.68 31.99 14.66 32.74 C14.6 35.04 14.55 37.35 14.5 39.65 C14.47 41.22 14.43 42.78 14.39 44.35 C14.29 48.18 14.21 52.01 14.13 55.84 C11.17 55.89 8.21 55.93 5.25 55.96 C3.99 55.99 3.99 55.99 2.7 56.01 C1.9 56.02 1.09 56.02 0.26 56.03 C-0.48 56.04 -1.23 56.05 -1.99 56.06 C-3.87 55.84 -3.87 55.84 -5.87 53.84 C-6.09 51.32 -6.2 48.9 -6.21 46.38 C-6.23 45.64 -6.24 44.9 -6.26 44.14 C-6.31 41.77 -6.34 39.39 -6.37 37.02 C-6.41 33.91 -6.47 30.8 -6.53 27.69 C-6.53 26.98 -6.54 26.27 -6.54 25.53 C-6.62 21.55 -7.03 18.39 -8.87 14.84 C-11.49 12.7 -12.95 12.84 -16.37 12.96 C-20.31 13.94 -21.58 14.53 -23.87 17.84 C-26.43 25.49 -26.32 33.35 -26.5 41.34 C-26.53 42.74 -26.57 44.15 -26.61 45.56 C-26.71 48.99 -26.79 52.41 -26.87 55.84 C-32.81 55.84 -38.75 55.84 -44.87 55.84 C-45.15 50.64 -45.42 45.46 -45.63 40.26 C-45.71 38.5 -45.8 36.74 -45.9 34.98 C-46.51 24.14 -46.83 14.92 -39.87 5.84 C-37.04 3.3 -34.27 1.51 -30.87 -0.16 C-30.27 -0.5 -29.66 -0.84 -29.04 -1.18 C-19.9 -5.54 -8.86 -4.12 0 0 Z " fill="#FAFCFC" transform="translate(281.87109375,141.1640625)"/>
<path d="M0 0 C9.53 0.16 17.61 6.41 24.12 12.75 C27.96 16.75 31.47 20.93 34.87 25.3 C37.79 29 40.85 32.57 43.91 36.15 C47.55 40.43 51.03 44.81 54.44 49.27 C54.96 49.84 55.47 50.41 56 51 C56.66 51 57.32 51 58 51 C58 50.39 57.99 49.78 57.99 49.15 C57.94 42.83 57.91 36.5 57.89 30.17 C57.88 27.81 57.87 25.45 57.85 23.09 C57.82 19.7 57.81 16.3 57.8 12.91 C57.79 11.85 57.78 10.79 57.77 9.7 C57.77 8.23 57.77 8.23 57.77 6.73 C57.77 5.86 57.76 4.99 57.76 4.1 C58 2 58 2 60 0 C62.71 -0.27 62.71 -0.27 65.94 -0.25 C67 -0.26 68.06 -0.26 69.15 -0.27 C72 0 72 0 75 2 C75.29 4.54 75.38 6.84 75.34 9.39 C75.34 10.53 75.34 10.53 75.34 11.69 C75.34 14.22 75.32 16.74 75.29 19.26 C75.29 21 75.28 22.75 75.28 24.5 C75.27 29.1 75.24 33.7 75.21 38.3 C75.18 42.99 75.16 47.68 75.15 52.37 C75.11 61.58 75.06 70.79 75 80 C72.77 80.12 70.53 80.2 68.3 80.27 C67.06 80.32 65.81 80.37 64.53 80.42 C60.31 79.92 58.99 78.8 56.19 75.69 C54.76 73.82 53.36 71.92 52 70 C50.55 68.22 49.09 66.45 47.62 64.69 C46.89 63.77 46.15 62.86 45.39 61.92 C42.78 58.73 40.11 55.58 37.44 52.44 C32.07 46.12 26.89 39.67 21.77 33.16 C21.04 32.24 20.31 31.32 19.56 30.38 C18.9 29.54 18.25 28.7 17.57 27.84 C17.05 27.23 16.53 26.62 16 26 C15.67 26 15.34 26 15 26 C14.67 43.82 14.34 61.64 14 80 C9.05 80 4.1 80 -1 80 C-2.47 77.05 -2.15 74.06 -2.15 70.83 C-2.15 69.72 -2.15 69.72 -2.16 68.59 C-2.16 66.14 -2.17 63.7 -2.17 61.25 C-2.17 59.55 -2.17 57.86 -2.18 56.16 C-2.18 52.6 -2.19 49.05 -2.19 45.49 C-2.19 40.92 -2.2 36.35 -2.22 31.79 C-2.23 28.28 -2.23 24.78 -2.23 21.28 C-2.23 19.59 -2.23 17.91 -2.24 16.23 C-2.25 13.87 -2.25 11.52 -2.24 9.17 C-2.25 8.47 -2.25 7.77 -2.26 7.05 C-2.23 2.23 -2.23 2.23 0 0 Z " fill="#F9FBFB" transform="translate(686,118)"/>
<path d="M0 0 C0.75 0 1.49 0 2.26 0 C3.03 -0 3.8 -0.01 4.6 -0.01 C6.24 -0.02 7.88 -0.02 9.52 -0.01 C12 -0.01 14.48 -0.03 16.96 -0.06 C30.44 -0.11 40.29 1.33 50.3 11 C55.98 17.11 56.99 23.43 56.78 31.6 C56.1 39.33 52.88 43.51 47.38 48.83 C45.54 50.3 45.54 50.3 43.54 50.3 C44.13 51.23 44.13 51.23 44.73 52.18 C56.54 72.54 56.54 72.54 56.54 80.3 C53.96 80.44 51.38 80.54 48.79 80.62 C48.06 80.66 47.33 80.7 46.58 80.74 C42.91 80.83 41 80.7 38.19 78.26 C36.64 75.48 35.51 72.75 34.51 69.73 C32.48 63.51 32.48 63.51 28.51 58.44 C23.21 55.88 17.33 55.6 11.54 56.3 C9.86 57.99 10.31 60.12 10.22 62.43 C10.18 63.47 10.14 64.5 10.1 65.57 C10.06 66.66 10.02 67.74 9.98 68.87 C9.94 69.96 9.89 71.05 9.85 72.18 C9.74 74.89 9.64 77.59 9.54 80.3 C4.26 80.3 -1.02 80.3 -6.46 80.3 C-7.93 77.35 -7.61 74.37 -7.6 71.13 C-7.61 70.02 -7.61 70.02 -7.61 68.89 C-7.62 66.45 -7.63 64 -7.63 61.55 C-7.63 59.86 -7.63 58.16 -7.64 56.46 C-7.64 52.91 -7.64 49.35 -7.64 45.79 C-7.64 41.23 -7.66 36.66 -7.67 32.09 C-7.69 28.59 -7.69 25.08 -7.69 21.58 C-7.69 19.9 -7.69 18.21 -7.7 16.53 C-7.71 14.18 -7.71 11.83 -7.7 9.48 C-7.71 8.78 -7.71 8.07 -7.72 7.35 C-7.68 1.08 -6.18 0.09 0 0 Z M9.54 13.3 C9.26 16.51 9.26 16.51 9.35 20.28 C9.35 20.97 9.35 21.65 9.35 22.36 C9.37 24.55 9.39 26.74 9.42 28.93 C9.43 30.41 9.44 31.9 9.44 33.38 C9.47 37.02 9.5 40.66 9.54 44.3 C12.23 44.39 14.91 44.44 17.6 44.49 C18.36 44.52 19.11 44.54 19.88 44.57 C25.82 44.64 30.62 43.82 35.28 39.8 C39.06 34.81 39.95 31.55 39.54 25.3 C38.8 21.39 37.78 18.39 34.74 15.72 C29.06 12.01 24.11 11.16 17.35 11.12 C15.79 11.09 15.79 11.09 14.19 11.07 C11.38 11.03 11.38 11.03 9.54 13.3 Z " fill="#FAFCFC" transform="translate(619.4588623046875,117.69645690917969)"/>
<path d="M0 0 C9.53 -0.02 19.06 -0.04 28.88 -0.06 C31.88 -0.07 34.89 -0.08 38 -0.09 C40.37 -0.09 42.74 -0.1 45.12 -0.1 C46.36 -0.1 47.6 -0.11 48.88 -0.11 C50.06 -0.11 51.24 -0.11 52.45 -0.11 C53.47 -0.12 54.5 -0.12 55.56 -0.12 C58 0 58 0 60 1 C60 6.28 60 11.56 60 17 C58.79 17.03 57.59 17.05 56.34 17.08 C51.88 17.17 47.42 17.27 42.97 17.37 C41.03 17.42 39.1 17.46 37.17 17.5 C34.39 17.55 31.62 17.62 28.85 17.68 C27.98 17.7 27.11 17.72 26.21 17.73 C22.29 17.45 22.29 17.45 19 19 C18.77 21.02 18.59 23.04 18.44 25.06 C18.35 26.17 18.27 27.27 18.18 28.41 C18.09 29.69 18.09 29.69 18 31 C19.44 30.99 19.44 30.99 20.91 30.98 C24.46 30.97 28.01 30.95 31.56 30.95 C33.1 30.94 34.64 30.93 36.18 30.92 C38.39 30.91 40.6 30.91 42.8 30.9 C43.84 30.89 43.84 30.89 44.89 30.89 C49.77 30.89 49.77 30.89 52 32 C52 37.28 52 42.56 52 48 C41.11 48 30.22 48 19 48 C18.67 58.23 18.34 68.46 18 79 C12.06 79 6.12 79 0 79 C0 52.93 0 26.86 0 0 Z " fill="#FBFDFD" transform="translate(0,118)"/>
<path d="M0 0 C7.24 5.45 13.12 11.33 14.96 20.43 C15.98 28.57 15.61 36.24 10.75 43.09 C5.79 49.03 0.33 54.43 -7.56 55.84 C-19.36 56.86 -28.38 56.56 -37.69 48.77 C-44.49 42.25 -48.82 36.62 -49.31 26.96 C-48.85 17.41 -45.18 9.95 -38.31 3.34 C-27.13 -5.58 -12.47 -7.91 0 0 Z M-26.56 13.84 C-30.65 20.17 -30.6 27.83 -29.09 35.09 C-27.98 38.25 -26.87 39.67 -23.94 41.27 C-18.56 42.17 -13.76 42.72 -8.62 40.65 C-5.23 37.66 -4.63 34.73 -4.3 30.28 C-4.3 29 -4.31 27.72 -4.31 26.4 C-4.31 25.12 -4.3 23.84 -4.3 22.53 C-4.56 18.9 -5.11 16.16 -6.56 12.84 C-13.23 8.18 -20.49 8.58 -26.56 13.84 Z " fill="#FAFCFC" transform="translate(216.5625,142.1640625)"/>
<path d="M0 0 C6.16 4.64 12.57 10.07 14.44 17.84 C15.41 28.11 15.55 37.38 8.89 45.79 C3.58 51.59 -3.29 55.56 -11.22 56.07 C-23.03 56.38 -31.01 55.5 -39.94 47.09 C-47.02 39.43 -49.42 34.05 -49.07 23.44 C-47.79 14.3 -43.11 7.16 -35.96 1.46 C-25.02 -5.95 -11.41 -7.23 0 0 Z M-27.94 15.71 C-30.93 21.59 -30.37 28.86 -29.09 35.16 C-27.99 38.3 -26.85 39.68 -23.94 41.27 C-18.56 42.17 -13.76 42.72 -8.62 40.65 C-5.32 37.75 -4.64 34.86 -4.3 30.53 C-4.08 21.42 -4.08 21.42 -6.56 12.84 C-13.95 7.51 -22.24 8.81 -27.94 15.71 Z " fill="#FAFCFC" transform="translate(565.5625,142.1640625)"/>
<path d="M0 0 C7.44 5.16 11.87 11.89 13.63 20.82 C13.63 24.45 13.63 28.08 13.63 31.82 C-0.89 31.82 -15.41 31.82 -30.37 31.82 C-27.53 37.94 -27.53 37.94 -22.37 40.82 C-18.24 41.89 -14.32 41.93 -10.06 41.89 C-8.8 41.88 -7.55 41.87 -6.26 41.86 C-4.83 41.84 -4.83 41.84 -3.37 41.82 C-3.37 46.11 -3.37 50.4 -3.37 54.82 C-10.95 58.61 -22.52 57.21 -30.37 54.82 C-38.2 51.1 -43.85 44.97 -48.31 37.64 C-50.6 29.4 -50.38 20.98 -46.75 13.17 C-41.67 4.54 -35.02 -0.76 -25.48 -3.77 C-16.25 -5.53 -8.17 -4.67 0 0 Z M-26.37 13.82 C-28.06 15.75 -29.13 17.55 -30.37 19.82 C-28.55 22.08 -28.55 22.08 -25.94 21.96 C-24.95 21.91 -23.95 21.85 -22.93 21.8 C-21.85 21.75 -20.77 21.7 -19.66 21.64 C-18.54 21.58 -17.41 21.52 -16.25 21.45 C-15.11 21.39 -13.97 21.34 -12.8 21.28 C-9.99 21.14 -7.18 20.98 -4.37 20.82 C-5.3 16.01 -5.3 16.01 -8.18 12.27 C-8.86 11.98 -9.54 11.69 -10.25 11.39 C-10.92 11.08 -11.6 10.77 -12.3 10.45 C-17.77 8.79 -21.9 10.8 -26.37 13.82 Z " fill="#FAFCFC" transform="translate(389.37109375,142.17578125)"/>
<path d="M0 0 C6.32 5.11 11.23 9.97 13 18 C13.5 24.93 13.5 24.93 14 32 C-0.52 32 -15.04 32 -30 32 C-27.9 38.66 -27.9 38.66 -25.01 40.34 C-17.59 42.25 -10.65 42.23 -3 42 C-3 46.29 -3 50.58 -3 55 C-14.29 57.29 -25.89 58.65 -36 52 C-42.93 46.3 -48.27 40.64 -49.44 31.59 C-49.95 20.95 -47.29 13.31 -40.62 5.06 C-28.94 -4.12 -13.51 -8.5 0 0 Z M-27.38 14.94 C-29.02 17.03 -29.63 18.39 -30 21 C-27.34 22.33 -25.31 22.11 -22.34 22.1 C-20.65 22.09 -20.65 22.09 -18.94 22.09 C-17.17 22.08 -17.17 22.08 -15.38 22.06 C-14.19 22.06 -13.01 22.05 -11.79 22.05 C-8.86 22.04 -5.93 22.02 -3 22 C-3.62 20.7 -4.25 19.41 -4.89 18.12 C-5.24 17.4 -5.59 16.68 -5.95 15.94 C-7.31 13.43 -8.42 12.25 -11 11 C-17.62 9.25 -22.1 10.64 -27.38 14.94 Z " fill="#FAFCFC" transform="translate(106,142)"/>
<path d="M0 0 C2 2 2 2 2.2 4.82 C2.17 5.91 2.15 7 2.12 8.12 C2.11 9.22 2.09 10.32 2.07 11.45 C2.05 12.29 2.02 13.13 2 14 C0.71 14.15 0.71 14.15 -0.6 14.3 C-11.2 15.43 -11.2 15.43 -19.34 21.72 C-21.92 26.09 -22.36 29.74 -21.85 34.73 C-20.57 38.15 -18.8 40.7 -16 43 C-12.98 44.36 -9.91 45.13 -6.69 45.88 C-5.85 46.09 -5.02 46.3 -4.15 46.52 C-2.11 47.03 -0.05 47.52 2 48 C2 51.96 2 55.92 2 60 C-6.8 62.93 -17.38 60.8 -25.52 56.75 C-32.87 52.15 -38.62 46.03 -42 38 C-43.28 28.99 -42.19 21.51 -37 14 C-27.73 2.67 -14.28 -1.6 0 0 Z " fill="#FAFCFC" transform="translate(165,138)"/>
<path d="M0 0 C1.15 -0 2.29 -0.01 3.48 -0.01 C6.38 0.12 6.38 0.12 8.38 1.12 C8.38 5.41 8.38 9.71 8.38 14.12 C6.91 14.19 5.45 14.25 3.94 14.31 C-3.18 15.04 -8.48 17.6 -13.12 23.06 C-15.9 28.74 -15.88 32.36 -13.9 38.2 C-10.4 43.48 -4.57 45 1.25 46.38 C1.94 46.55 2.63 46.72 3.34 46.9 C5.01 47.32 6.69 47.72 8.38 48.12 C8.38 52.09 8.38 56.05 8.38 60.12 C0.17 62.86 -9.81 60.96 -17.62 57.62 C-25.15 53.51 -32.08 46.5 -35.07 38.4 C-37.04 30.32 -35.58 23.36 -31.62 16.12 C-26.49 7.8 -17.66 3.51 -8.61 0.44 C-5.73 -0.02 -2.92 -0.01 0 0 Z M-34.62 26.12 C-33.62 28.12 -33.62 28.12 -33.62 28.12 Z " fill="#FAFCFC" transform="translate(477.625,137.875)"/>
<path d="M0 0 C0.78 -0 1.55 -0.01 2.35 -0.01 C4.38 0.12 4.38 0.12 6.38 1.12 C6.38 5.41 6.38 9.71 6.38 14.12 C3.35 15.07 0.32 16.01 -2.71 16.96 C-6.28 18.39 -7.92 19.72 -9.62 23.12 C-9.78 25.89 -9.88 28.64 -9.94 31.41 C-9.96 32.23 -9.98 33.05 -10 33.89 C-10.07 36.51 -10.13 39.13 -10.19 41.75 C-10.23 43.52 -10.27 45.3 -10.32 47.07 C-10.43 51.42 -10.53 55.77 -10.62 60.12 C-16.89 60.12 -23.17 60.12 -29.62 60.12 C-32.02 55.33 -30.94 48.05 -30.98 42.72 C-30.99 41 -31.02 39.29 -31.06 37.58 C-31.5 17.72 -31.5 17.72 -23.98 9.27 C-17.9 3.25 -8.47 -0.03 0 0 Z " fill="#FAFCFC" transform="translate(437.625,136.875)"/>
<path d="M0 0 C17.2 5.87 33.48 13.82 48.44 24.16 C45.17 25.25 44.62 25.12 41.51 24.08 C40.73 23.83 39.94 23.57 39.13 23.31 C38.29 23.03 37.44 22.75 36.56 22.47 C10.13 14.24 -17 12.02 -44.56 14.16 C-45.25 14.21 -45.95 14.26 -46.66 14.31 C-49.97 14.55 -53.26 14.83 -56.56 15.16 C-53.28 9.69 -49.21 5.49 -44.56 1.16 C-43.56 0.13 -43.56 0.13 -42.53 -0.91 C-30.87 -11.66 -13.24 -4.37 0 0 Z " fill="#FAFCFC" transform="translate(1182.56103515625,5.8447265625)"/>
<path d="M0 0 C1.46 0 2.92 0.02 4.38 0.04 C5.11 0.04 5.85 0.04 6.61 0.04 C12.09 0.09 12.09 0.09 14.38 1.23 C14.38 20.04 14.38 38.85 14.38 58.23 C8.11 58.23 1.83 58.23 -4.62 58.23 C-5.89 55.69 -5.76 53.92 -5.77 51.08 C-5.78 50 -5.78 48.93 -5.79 47.82 C-5.79 46.66 -5.79 45.49 -5.79 44.29 C-5.8 43.1 -5.8 41.91 -5.8 40.68 C-5.81 38.16 -5.81 35.64 -5.81 33.12 C-5.81 29.25 -5.83 25.38 -5.85 21.5 C-5.85 19.06 -5.85 16.61 -5.86 14.17 C-5.86 13 -5.87 11.84 -5.88 10.64 C-5.87 9.56 -5.87 8.49 -5.87 7.38 C-5.87 6.43 -5.87 5.49 -5.87 4.51 C-5.43 0.42 -3.92 0.25 0 0 Z " fill="#FBFDFD" transform="translate(498.625,138.76953125)"/>
<path d="M0 0 C2.34 1.29 2.34 1.29 4.56 2.81 C6.71 4.28 6.71 4.28 9 5 C11.51 4.1 13.4 2.79 15.61 1.3 C19.9 -1.03 24.27 -0.79 29 0 C33.41 2.17 36.4 4.83 39 9 C41.02 15.31 41.26 21.49 41.12 28.06 C41.12 28.93 41.11 29.79 41.1 30.69 C41.07 32.79 41.04 34.9 41 37 C38.12 37.12 38.12 37.12 35 37 C32.45 34.45 32.73 33.45 32.66 29.91 C32.63 28.9 32.6 27.89 32.57 26.84 C32.54 25.78 32.52 24.72 32.5 23.62 C32.46 21.53 32.4 19.44 32.34 17.35 C32.32 15.96 32.32 15.96 32.29 14.53 C31.98 11.86 31.5 10.23 30 8 C25.86 6.13 23.68 5.83 19.25 6.94 C15.37 9.4 14.18 11.7 13 16 C12.53 19.64 12.4 23.27 12.31 26.94 C12.28 27.91 12.24 28.88 12.21 29.88 C12.13 32.25 12.06 34.63 12 37 C10.02 37 8.04 37 6 37 C4.85 34.7 4.82 33.23 4.72 30.68 C4.68 29.81 4.64 28.95 4.61 28.06 C4.55 26.7 4.55 26.7 4.5 25.31 C4.27 19.47 3.95 13.77 3 8 C-1.5 6.61 -4.79 5.62 -9.38 7.06 C-12.82 9.6 -14.44 11.96 -15.57 16.08 C-16.17 20.17 -16.1 24.19 -16.06 28.31 C-16.06 29.15 -16.05 29.98 -16.05 30.85 C-16.04 32.9 -16.02 34.95 -16 37 C-18.88 37.12 -18.88 37.12 -22 37 C-25.22 33.78 -24.43 29.89 -24.44 25.5 C-24.43 17.81 -24.17 11.15 -19 5 C-13.58 0 -7.11 -1.02 0 0 Z M-23 15 C-22 18 -22 18 -22 18 Z " fill="#F9FBFB" transform="translate(738,303)"/>
<path d="M0 0 C2.31 1.19 4.24 2.46 6.25 4.1 C6.82 4.4 7.4 4.69 8 5 C10.42 4.16 12.26 2.83 14.39 1.41 C19.07 -1.12 23.84 -0.93 29 0 C34.04 2.72 37.29 6.49 39.44 11.83 C40.63 16.44 40.3 21.21 40.19 25.94 C40.17 27.54 40.17 27.54 40.15 29.17 C40.11 31.78 40.06 34.39 40 37 C38.02 37 36.04 37 34 37 C32.82 34.64 32.81 33.06 32.72 30.42 C32.66 29.05 32.66 29.05 32.61 27.65 C32.57 26.69 32.54 25.74 32.5 24.75 C32.21 16.33 32.21 16.33 31 8 C26.29 6.43 24.04 5.71 19.19 7.06 C15.7 9.19 14.76 10.39 13 14 C12.43 17 12.43 17 12.31 20.19 C12.25 21.32 12.18 22.45 12.12 23.62 C11.96 28.08 11.91 32.53 12 37 C9.12 37.12 9.12 37.12 6 37 C3.45 34.45 3.72 33.42 3.62 29.88 C3.57 28.35 3.57 28.35 3.52 26.79 C3.49 25.73 3.46 24.66 3.44 23.56 C3.38 21.46 3.31 19.36 3.25 17.25 C3.22 16.32 3.2 15.38 3.17 14.42 C3.09 11.86 3.09 11.86 2 9 C-2.13 6.65 -5.77 5.68 -10.38 6.88 C-14.29 10.04 -15.69 13.65 -16.33 18.54 C-16.52 21.34 -16.62 24.13 -16.69 26.94 C-16.72 27.91 -16.76 28.88 -16.79 29.88 C-16.87 32.25 -16.94 34.63 -17 37 C-18.98 37 -20.96 37 -23 37 C-24.91 33.18 -24.32 28.58 -24.38 24.38 C-24.41 23.4 -24.45 22.43 -24.49 21.43 C-24.57 14.69 -23.49 10.14 -19 5 C-13.31 -0.05 -7.51 -1.44 0 0 Z " fill="#F9FBFB" transform="translate(527,303)"/>
<path d="M0 0 C1.32 0.01 1.32 0.01 2.66 0.01 C3.67 0.01 4.68 0.01 5.72 0.01 C7.4 0.03 7.4 0.03 9.11 0.04 C10.3 0.04 11.48 0.04 12.69 0.05 C15.99 0.06 19.28 0.07 22.57 0.09 C26.12 0.1 29.66 0.11 33.21 0.13 C39.36 0.15 45.5 0.17 51.65 0.2 C60.54 0.24 69.43 0.27 78.31 0.3 C92.73 0.35 107.15 0.41 121.57 0.47 C135.58 0.53 149.59 0.58 163.6 0.64 C164.9 0.64 164.9 0.64 166.22 0.65 C170.55 0.66 174.88 0.68 179.21 0.69 C215.14 0.83 251.08 0.97 287.02 1.12 C287.02 2.11 287.02 3.1 287.02 4.12 C191.65 4.12 96.28 4.12 -1.98 4.12 C-2.31 3.13 -2.64 2.14 -2.98 1.12 C-1.98 0.12 -1.98 0.12 0 0 Z " fill="#FBFDFD" transform="translate(992.977274954319,320.88221353292465)"/>
<path d="M0 0 C94.71 0 189.42 0 287 0 C287 0.99 287 1.98 287 3 C192.29 3 97.58 3 0 3 C0 2.01 0 1.02 0 0 Z " fill="#FBFDFD" transform="translate(0,322)"/>
<path d="M0 0 C2.16 1.73 2.16 1.73 2.87 3.77 C2.97 5.76 3.07 7.74 3.16 9.73 C2.61 9.44 2.05 9.15 1.48 8.86 C-3.96 6.21 -7.79 4.95 -13.84 5.73 C-17.27 7.03 -20.14 8.46 -21.96 11.79 C-22 13.77 -22 13.77 -20.78 15.23 C-17.96 17.41 -15.1 17.82 -11.65 18.61 C-2.8 20.78 4.14 23.88 9.16 31.73 C9.85 36 9.5 38.07 7.54 41.92 C3.84 46.3 -0.41 48.97 -5.84 50.73 C-9.39 50.93 -9.39 50.93 -13.15 50.86 C-15.03 50.83 -15.03 50.83 -16.95 50.8 C-18.38 50.77 -18.38 50.77 -19.84 50.73 C-19.84 50.07 -19.84 49.41 -19.84 48.73 C-20.6 48.65 -21.36 48.57 -22.15 48.48 C-25.36 47.58 -26.13 46.51 -27.84 43.73 C-26.77 42.17 -26.77 42.17 -24.84 40.73 C-21.73 40.96 -18.89 41.44 -15.89 42.26 C-10.97 43.38 -6.32 43.46 -1.77 41.23 C-1.13 40.74 -0.49 40.24 0.16 39.73 C0.27 36.57 0.11 33.76 -0.84 30.73 C-4.64 26.95 -10.29 26.41 -15.34 25.42 C-21.66 24.07 -25.85 21.89 -29.84 16.73 C-31.15 13.73 -31.15 13.73 -30.84 10.73 C-27.97 5.09 -24.47 2.22 -18.73 -0.39 C-12.63 -2.24 -5.88 -2.63 0 0 Z " fill="#F9FBFB" transform="translate(372.8359375,291.26953125)"/>
<path d="M0 0 C0.89 0.74 1.77 1.49 2.69 2.25 C3.43 2.83 4.17 3.4 4.94 4 C9.68 10.1 8.94 18.42 8.81 25.75 C8.8 26.76 8.79 27.78 8.79 28.82 C8.76 31.3 8.73 33.77 8.69 36.25 C6.71 36.25 4.73 36.25 2.69 36.25 C2.69 35.26 2.69 34.27 2.69 33.25 C1.58 33.79 1.58 33.79 0.45 34.34 C-6.29 37.43 -12.87 40.27 -20.31 38.25 C-24.11 35.67 -26.68 32.63 -27.88 28.15 C-28.09 24.69 -27.26 22.13 -25.88 19 C-21.88 14.71 -17.53 12.59 -11.68 11.97 C-7.46 11.92 -3.41 12.16 0.69 13.25 C0.36 11.27 0.03 9.29 -0.31 7.25 C-7.89 4.98 -13.63 5.56 -21.31 7.25 C-21.94 4.88 -21.94 4.88 -22.31 2.25 C-17.04 -3.02 -6.32 -3.34 0 0 Z M-12.31 -0.75 C-12.31 -0.42 -12.31 -0.09 -12.31 0.25 C-10.66 0.25 -9.01 0.25 -7.31 0.25 C-7.31 -0.08 -7.31 -0.41 -7.31 -0.75 C-8.96 -0.75 -10.61 -0.75 -12.31 -0.75 Z M-20.31 23.12 C-21.6 25.28 -21.6 25.28 -20.69 27.94 C-19.47 30.56 -19.47 30.56 -16.31 31.25 C-8.39 31.98 -8.39 31.98 -1.12 29.38 C1.85 25.89 1.79 23.76 1.69 19.25 C-6.1 16.65 -14.22 17.42 -20.31 23.12 Z M-13.31 32.25 C-13.31 32.58 -13.31 32.91 -13.31 33.25 C-11.33 33.25 -9.35 33.25 -7.31 33.25 C-7.31 32.92 -7.31 32.59 -7.31 32.25 C-9.29 32.25 -11.27 32.25 -13.31 32.25 Z " fill="#F9FBFB" transform="translate(602.3125,303.75)"/>
<path d="M0 0 C5.11 2.28 8.77 6.47 12 11 C13.78 16.35 14.05 22.8 12.28 28.2 C9.27 33.78 4.94 37.08 -1 39 C-4.55 39.2 -4.55 39.2 -8.31 39.12 C-10.19 39.1 -10.19 39.1 -12.11 39.07 C-13.54 39.04 -13.54 39.04 -15 39 C-15 38.34 -15 37.68 -15 37 C-16.05 36.72 -16.05 36.72 -17.12 36.44 C-22.19 33.91 -25.83 29.21 -28 24 C-29.03 17.6 -27.75 12.26 -24 7 C-16.93 -0.45 -9.9 -0.91 0 0 Z M-16.6 9.35 C-19.28 12.51 -20.49 15.92 -21 20 C-20.29 23.7 -19.19 26.92 -17 30 C-11.98 32.74 -6.57 32.7 -1 32 C2 30.2 3.45 29.1 5 26 C5.83 16.41 5.83 16.41 2 8 C-4.73 4.41 -10.38 4.1 -16.6 9.35 Z M6 18 C7 22 7 22 7 22 Z " fill="#F8FAFA" transform="translate(921,303)"/>
<path d="M0 0 C5.11 2.28 8.77 6.47 12 11 C13.86 16.58 13.96 23.32 11.88 28.88 C8.76 34.06 4.83 37.16 -1 39 C-4.55 39.2 -4.55 39.2 -8.31 39.12 C-10.19 39.1 -10.19 39.1 -12.11 39.07 C-13.54 39.04 -13.54 39.04 -15 39 C-15 38.34 -15 37.68 -15 37 C-15.57 36.93 -16.15 36.85 -16.74 36.77 C-19.79 35.73 -21.09 34.05 -23.19 31.62 C-24.23 30.44 -24.23 30.44 -25.29 29.23 C-28.62 24.89 -28.6 20.25 -28 15 C-25.92 8.33 -22.07 4.57 -16.24 0.89 C-11.18 -1.12 -5.34 -0.49 0 0 Z M-16 8 C-19.08 12.08 -21 16.11 -21 21.25 C-19.15 27.2 -19.15 27.2 -14.73 31.15 C-10.17 32.57 -5.73 32.59 -1 32 C2.62 29.9 3.68 28.95 5 25 C5.49 18.94 5.96 12.95 2 8 C-4.24 4.66 -9.78 4.02 -16 8 Z M6 19 C7 21 7 21 7 21 Z " fill="#F9FBFB" transform="translate(697,303)"/>
<path d="M0 0 C3.25 1.5 3.25 1.5 6 4 C6.95 4.86 6.95 4.86 7.91 5.73 C11.65 9.46 11.65 9.46 13 12 C13 14.97 13 17.94 13 21 C3.43 21.33 -6.14 21.66 -16 22 C-15.71 27.87 -15.71 27.87 -12.62 29.88 C-5.91 31.96 1.16 31.48 8 30 C6.53 36.62 6.53 36.62 4.31 38.22 C1.36 39.22 -1.14 39.19 -4.25 39.12 C-5.33 39.11 -6.41 39.09 -7.52 39.07 C-8.75 39.04 -8.75 39.04 -10 39 C-10 38.34 -10 37.68 -10 37 C-10.58 36.9 -11.15 36.8 -11.75 36.7 C-16.77 35.14 -20.63 30.58 -24 26.69 C-25.84 21.73 -26.1 16.65 -24.05 11.71 C-18.34 2.07 -10.94 -1.24 0 0 Z M-14 9 C-16.04 12.07 -16.04 12.07 -17 15 C-15.98 16.24 -15.98 16.24 -13.87 16.11 C-12.95 16.11 -12.03 16.1 -11.09 16.1 C-10.1 16.09 -9.11 16.09 -8.09 16.09 C-6.53 16.08 -6.53 16.08 -4.94 16.06 C-3.89 16.06 -2.85 16.05 -1.77 16.05 C0.82 16.04 3.41 16.02 6 16 C4.9 11.16 4.9 11.16 2.25 7.12 C-3.95 4.02 -8.57 4.93 -14 9 Z " fill="#F8FAFA" transform="translate(485,303)"/>
<path d="M0 0 C3.1 1.59 5.49 3.59 8 6 C8.8 6.72 9.61 7.44 10.44 8.19 C13.97 12.28 13 15.27 13 21 C3.43 21.33 -6.14 21.66 -16 22 C-16.33 22.66 -16.66 23.32 -17 24 C-15.65 27.01 -14.7 28.65 -11.72 30.14 C-5.49 32.1 1.69 31.36 8 30 C6.52 36.65 6.52 36.65 4.22 38.2 C-1.07 40.1 -6.99 39.79 -12.12 37.56 C-16.99 34.79 -20.88 30.61 -24 26 C-25.27 21.32 -26.11 16.46 -24.06 11.91 C-18.45 2.45 -10.98 -1.76 0 0 Z M-14 9 C-16.04 12.07 -16.04 12.07 -17 15 C-15.32 16.68 -13.18 16.23 -10.87 16.32 C-9.32 16.38 -9.32 16.38 -7.74 16.44 C-6.65 16.48 -5.56 16.52 -4.44 16.56 C-3.35 16.61 -2.25 16.65 -1.13 16.69 C1.58 16.8 4.29 16.9 7 17 C6.41 15.54 5.8 14.08 5.19 12.63 C4.86 11.82 4.52 11.01 4.17 10.17 C2.45 6.98 0.38 6.08 -3 5 C-7.3 5 -10.48 6.58 -14 9 Z " fill="#F9FBFB" transform="translate(811,303)"/>
<path d="M0 0 C3.56 1.53 6 3.67 8.81 6.31 C12.71 9.89 16.62 13.05 21 16 C20.63 18.56 20.27 19.75 18.36 21.54 C17.64 22.04 16.92 22.54 16.19 23.06 C12.17 26.04 8.43 29.19 4.75 32.56 C3.78 33.45 2.8 34.34 1.8 35.25 C-0.23 37.25 -1.97 39.14 -3.73 41.34 C-4.48 42.22 -5.23 43.1 -6 44 C-6.66 44 -7.32 44 -8 44 C-10.27 37.19 -8.72 30.17 -7.31 23.31 C-7.14 22.44 -6.96 21.57 -6.78 20.68 C-5.25 13.44 -3.01 6.77 0 0 Z M-7 26 C-6 28 -6 28 -6 28 Z M-8 33 C-7 37 -7 37 -7 37 Z " fill="#F7FAF9" transform="translate(1093,75)"/>
<path d="M0 0 C0 1.65 0 3.3 0 5 C-0.7 5.09 -1.4 5.17 -2.12 5.26 C-8.56 6.22 -14.2 7.36 -19 12 C-22.72 17.43 -24.19 23.51 -23 30 C-22.11 32.24 -21.09 34.28 -19.88 36.37 C-19 38 -19 38 -19 40 C-12.75 42.27 -6.55 43.84 0 45 C0 46.98 0 48.96 0 51 C-8.25 51.63 -15.43 50.62 -22.08 45.35 C-27.53 40.11 -30.37 35.67 -31 28 C-31.11 26.85 -31.11 26.85 -31.23 25.68 C-31.63 18.76 -29.87 13.74 -26 8 C-19.87 1.6 -8.87 -4.44 0 0 Z " fill="#F9FBFB" transform="translate(668,291)"/>
<path d="M0 0 C1.08 0.02 2.16 0.04 3.27 0.05 C4.5 0.09 4.5 0.09 5.75 0.12 C5.75 0.79 5.75 1.44 5.75 2.12 C6.74 2.12 7.73 2.12 8.75 2.12 C9.08 4.11 9.41 6.08 9.75 8.12 C9.11 7.96 8.47 7.79 7.81 7.62 C2.01 6.25 -1.68 5.94 -7.25 8.12 C-7.25 9.77 -7.25 11.43 -7.25 13.12 C-6.55 13.28 -5.85 13.44 -5.12 13.61 C2.46 15.47 9.55 18 14.75 24.12 C15.33 27.52 15.58 29.91 13.58 32.84 C9.78 36.84 6.26 38.97 0.64 39.32 C-0.95 39.29 -0.95 39.29 -2.56 39.25 C-3.63 39.23 -4.7 39.21 -5.8 39.2 C-7.01 39.16 -7.01 39.16 -8.25 39.12 C-8.25 38.47 -8.25 37.81 -8.25 37.12 C-9.05 36.9 -9.86 36.67 -10.69 36.44 C-11.53 36 -12.38 35.57 -13.25 35.12 C-14.06 32.5 -14.06 32.5 -14.25 30.12 C-11.51 28.76 -10.11 29.78 -7.32 30.64 C-2.62 31.74 2.18 31.65 6.75 30.12 C6.25 27.65 6.25 27.65 5.75 25.12 C5.17 24.94 4.59 24.76 3.99 24.57 C-3.98 22.01 -10.71 19.59 -15.25 12.12 C-15.42 8.64 -14.39 7.33 -12.44 4.44 C-8.54 0.32 -5.61 -0.12 0 0 Z " fill="#F8FAFA" transform="translate(416.25,302.875)"/>
<path d="M0 0 C0 1.65 0 3.3 0 5 C-1.79 5.12 -1.79 5.12 -3.62 5.25 C-7.96 5.82 -10.67 7.05 -14 10 C-16.95 15.04 -17.38 18.35 -16 24 C-15.08 26.83 -14.56 27.7 -11.94 29.12 C-8 30.3 -4.02 31.18 0 32 C0 33.98 0 35.96 0 38 C-3.63 38 -7.26 38 -11 38 C-11 37.34 -11 36.68 -11 36 C-11.74 35.93 -12.47 35.85 -13.23 35.78 C-16.74 34.79 -17.93 33.33 -20.25 30.56 C-21.28 29.36 -21.28 29.36 -22.33 28.13 C-25.96 23.51 -25.68 18.69 -25 13 C-22.56 6.87 -18.4 3.04 -12.81 -0.31 C-8.48 -1.37 -4.37 -0.63 0 0 Z " fill="#F8FBFA" transform="translate(874,304)"/>
<path d="M0 0 C2.62 0.38 2.62 0.38 5 1 C5 2.65 5 4.3 5 6 C6.28 5.98 7.56 5.96 8.88 5.94 C12.75 5.88 12.75 5.88 15 7 C15 8.65 15 10.3 15 12 C12.95 12.23 10.9 12.46 8.85 12.68 C6.99 12.82 6.99 12.82 6 14 C5.87 16.95 5.81 19.86 5.81 22.81 C5.8 23.63 5.79 24.45 5.78 25.3 C5.77 26.09 5.77 26.89 5.77 27.71 C5.77 28.43 5.76 29.16 5.76 29.91 C6.04 32.33 6.74 33.92 8 36 C9.7 37.1 9.7 37.1 11.62 37.75 C13.3 38.37 13.3 38.37 15 39 C15 40.65 15 42.3 15 44 C13.48 44.05 11.96 44.04 10.44 44 C9.59 44 8.74 44 7.87 44 C3 42.3 0.31 39.6 -2 35 C-2.78 30.09 -2.8 25.36 -2.64 20.41 C-2.56 18.11 -2.54 15.81 -2.52 13.52 C-2.5 12.05 -2.47 10.59 -2.44 9.13 C-2.43 8.45 -2.42 7.76 -2.41 7.05 C-2.24 2.24 -2.24 2.24 0 0 Z " fill="#FAFCFC" transform="translate(441,297)"/>
<path d="M0 0 C4.28 0.55 7.56 1.55 11.38 3.56 C12.69 4.25 12.69 4.25 14.02 4.94 C14.68 5.29 15.33 5.64 16 6 C13.45 12.09 8.44 16.46 3 20 C-1.73 21.07 -6.17 21.24 -11 21 C-10.58 15.23 -8.17 11.71 -4.94 7.12 C-4.47 6.44 -3.99 5.75 -3.51 5.04 C-2.35 3.35 -1.17 1.68 0 0 Z " fill="#F8FAFA" transform="translate(376,112)"/>
<path d="M0 0 C95.04 0 190.08 0 288 0 C288 0.33 288 0.66 288 1 C192.96 1 97.92 1 0 1 C0 0.67 0 0.34 0 0 Z " fill="#FBFDFD" transform="translate(992,320)"/>
<path d="M0 0 C0 1.65 0 3.3 0 5 C-0.61 5.21 -1.23 5.42 -1.86 5.63 C-3.08 6.09 -3.08 6.09 -4.31 6.56 C-5.11 6.85 -5.91 7.14 -6.74 7.44 C-9.97 9.67 -11.05 12.32 -12 16 C-12.46 19.48 -12.6 22.93 -12.69 26.44 C-12.72 27.36 -12.76 28.28 -12.79 29.23 C-12.87 31.49 -12.94 33.74 -13 36 C-14.98 36 -16.96 36 -19 36 C-21.82 27.25 -21.16 15.12 -17.21 6.89 C-15.51 4.23 -13.69 2.62 -11 1 C-10.38 0.57 -9.76 0.13 -9.12 -0.31 C-5.94 -1.34 -3.23 -0.62 0 0 Z " fill="#F9FBFB" transform="translate(848,304)"/>
<path d="M0 0 C94.05 0 188.1 0 285 0 C285 0.33 285 0.66 285 1 C190.95 1 96.9 1 0 1 C0 0.67 0 0.34 0 0 Z " fill="#FBFDFD" transform="translate(0,320)"/>
<path d="M0 0 C0 3.96 -1.78 6.45 -3.75 9.75 C-4.1 10.35 -4.45 10.94 -4.8 11.55 C-5.51 12.76 -6.21 13.96 -6.92 15.16 C-8.64 18.09 -10.32 21.05 -12 24 C-16.86 20.21 -21.42 16.06 -25 11 C-25 10.01 -25 9.02 -25 8 C-22.15 6.84 -19.3 5.7 -16.44 4.56 C-15.64 4.24 -14.84 3.91 -14.01 3.58 C-9.3 1.71 -5.05 0.48 0 0 Z " fill="#F8FAFA" transform="translate(1103,39)"/>
<path d="M0 0 C1.46 0 2.92 0.02 4.38 0.04 C5.11 0.04 5.85 0.04 6.61 0.04 C12.09 0.09 12.09 0.09 14.38 1.23 C14.38 5.52 14.38 9.81 14.38 14.23 C8.11 14.23 1.83 14.23 -4.62 14.23 C-5.86 11.75 -5.79 9.99 -5.81 7.23 C-5.83 6.34 -5.84 5.46 -5.86 4.54 C-5.45 0.43 -3.94 0.25 0 0 Z " fill="#FBFDFD" transform="translate(498.625,117.76953125)"/>
<path d="M0 0 C2.81 2.02 4.68 3.48 5.41 6.97 C5.54 10.06 5.17 12.6 3.94 15.44 C1.02 17.79 -1.29 17.94 -5 18 C-7.75 16.75 -7.75 16.75 -10 15 C-10.6 14.59 -11.2 14.18 -11.81 13.75 C-13.83 10.78 -13.48 8.47 -13 5 C-8.81 -0.07 -6.43 -1.77 0 0 Z " fill="#F8FAFA" transform="translate(853,149)"/>
<path d="M0 0 C1.65 0.33 3.3 0.66 5 1 C5 12.88 5 24.76 5 37 C3.02 37 1.04 37 -1 37 C-2.5 34.01 -2.16 30.94 -2.17 27.66 C-2.17 26.93 -2.17 26.21 -2.18 25.46 C-2.18 23.93 -2.19 22.39 -2.19 20.86 C-2.19 18.51 -2.21 16.16 -2.22 13.81 C-2.23 12.32 -2.23 10.83 -2.23 9.34 C-2.24 8.64 -2.24 7.93 -2.25 7.21 C-2.23 2.23 -2.23 2.23 0 0 Z " fill="#FBFDFD" transform="translate(390,303)"/>
<path d="M0 0 C2.97 0.5 2.97 0.5 6 1 C6 12.88 6 24.76 6 37 C4.02 37 2.04 37 0 37 C-0.17 31.89 -0.33 26.78 -0.48 21.67 C-0.54 19.93 -0.59 18.2 -0.65 16.46 C-0.73 13.96 -0.81 11.47 -0.88 8.97 C-0.91 8.19 -0.93 7.41 -0.96 6.6 C-1.01 4.74 -1.01 2.87 -1 1 C-0.67 0.67 -0.34 0.34 0 0 Z " fill="#FBFDFD" transform="translate(882,303)"/>
<path d="M0 0 C2 0.25 3.98 0.66 5.96 1.09 C2.13 6.15 -0.61 9.2 -7.04 10.09 C-6.54 5.69 -5.22 0.23 0 0 Z " fill="#F3F6F5" transform="translate(810.04296875,289.91015625)"/>
<path d="M0 0 C2.01 0.29 4.01 0.62 6 1 C6 2.65 6 4.3 6 6 C4.02 6 2.04 6 0 6 C-0.38 4.34 -0.71 2.68 -1 1 C-0.67 0.67 -0.34 0.34 0 0 Z " fill="#FBFDFD" transform="translate(882,290)"/>
<path d="M0 0 C2.62 0.38 2.62 0.38 5 1 C5 2.65 5 4.3 5 6 C3.02 6 1.04 6 -1 6 C-1.62 4.12 -1.62 4.12 -2 2 C-1.34 1.34 -0.68 0.68 0 0 Z " fill="#FBFDFD" transform="translate(390,290)"/>
<path d="M0 0 C0.33 0 0.66 0 1 0 C1 10.89 1 21.78 1 33 C0.67 33 0.34 33 0 33 C0 22.11 0 11.22 0 0 Z " fill="#FBFDFD" transform="translate(880,305)"/>
<path d="M0 0 C0.33 0 0.66 0 1 0 C1 9.57 1 19.14 1 29 C0.67 29 0.34 29 0 29 C0 19.43 0 9.86 0 0 Z " fill="#FBFDFD" transform="translate(235,166)"/>
<path d="M0 0 C0.33 0 0.66 0 1 0 C1 2.97 1 5.94 1 9 C0.67 9 0.34 9 0 9 C0 6.03 0 3.06 0 0 Z " fill="#FBFDFD" transform="translate(827,327)"/>
<path d="M0 0 C2.64 0 5.28 0 8 0 C8 0.33 8 0.66 8 1 C5.36 1 2.72 1 0 1 C0 0.67 0 0.34 0 0 Z " fill="#FBFDFD" transform="translate(1272,118)"/>
<path d="M0 0 C1.98 0 3.96 0 6 0 C6 0.33 6 0.66 6 1 C4.02 1 2.04 1 0 1 C0 0.67 0 0.34 0 0 Z " fill="#FBFDFD" transform="translate(911,302)"/>
<path d="M0 0 C1.98 0 3.96 0 6 0 C6 0.33 6 0.66 6 1 C4.02 1 2.04 1 0 1 C0 0.67 0 0.34 0 0 Z " fill="#FBFDFD" transform="translate(759,302)"/>
<path d="M0 0 C1.98 0 3.96 0 6 0 C6 0.33 6 0.66 6 1 C4.02 1 2.04 1 0 1 C0 0.67 0 0.34 0 0 Z " fill="#FBFDFD" transform="translate(687,302)"/>
<path d="M0 0 C1.98 0 3.96 0 6 0 C6 0.33 6 0.66 6 1 C4.02 1 2.04 1 0 1 C0 0.67 0 0.34 0 0 Z " fill="#FBFDFD" transform="translate(361,289)"/>
<path d="M0 0 C0.33 0 0.66 0 1 0 C1 1.98 1 3.96 1 6 C0.67 6 0.34 6 0 6 C0 4.02 0 2.04 0 0 Z " fill="#FBFDFD" transform="translate(516,166)"/>
<path d="M0 0 C0.33 0 0.66 0 1 0 C1 1.65 1 3.3 1 5 C0.67 5 0.34 5 0 5 C0 3.35 0 1.7 0 0 Z " fill="#FBFDFD" transform="translate(636,314)"/>
<path d="M0 0 C1.65 0 3.3 0 5 0 C5 0.33 5 0.66 5 1 C3.35 1 1.7 1 0 1 C0 0.67 0 0.34 0 0 Z " fill="#FBFDFD" transform="translate(548,302)"/>
<path d="M0 0 C0.33 0 0.66 0 1 0 C1 1.65 1 3.3 1 5 C0.67 5 0.34 5 0 5 C0 3.35 0 1.7 0 0 Z " fill="#FBFDFD" transform="translate(56,167)"/>
<path d="M0 0 C1 4 1 4 1 4 Z " fill="#FBFDFD" transform="translate(574,328)"/>
<path d="M0 0 C1 4 1 4 1 4 Z " fill="#FBFDFD" transform="translate(785,320)"/>
<path d="M0 0 C4 1 4 1 4 1 Z " fill="#FBFDFD" transform="translate(414,302)"/>
<path d="M0 0 C1 4 1 4 1 4 Z " fill="#FBFDFD" transform="translate(167,167)"/>
<path d="M0 0 C3 1 3 1 3 1 Z " fill="#FBFDFD" transform="translate(868,302)"/>
<path d="M0 0 C3 1 3 1 3 1 Z " fill="#FBFDFD" transform="translate(804,302)"/>
<path d="M0 0 C3 1 3 1 3 1 Z " fill="#FBFDFD" transform="translate(732,302)"/>
<path d="M0 0 C3 1 3 1 3 1 Z " fill="#FBFDFD" transform="translate(520,302)"/>
<path d="M0 0 C3 1 3 1 3 1 Z " fill="#FBFDFD" transform="translate(478,302)"/>
<path d="" fill="#FBFDFD" transform="translate(0,0)"/>
<path d="" fill="#FBFDFD" transform="translate(0,0)"/>
<path d="" fill="#FBFDFD" transform="translate(0,0)"/>
<path d="" fill="#FBFDFD" transform="translate(0,0)"/>
<path d="" fill="#FBFDFD" transform="translate(0,0)"/>
<path d="" fill="#FBFDFD" transform="translate(0,0)"/>
<path d="" fill="#FBFDFD" transform="translate(0,0)"/>
<path d="" fill="#FBFDFD" transform="translate(0,0)"/>
<path d="" fill="#FBFDFD" transform="translate(0,0)"/>
<path d="" fill="#C4C7C6" transform="translate(0,0)"/>
<path d="" fill="#FBFDFD" transform="translate(0,0)"/>
<path d="" fill="#FBFDFD" transform="translate(0,0)"/>
<path d="" fill="#FBFDFD" transform="translate(0,0)"/>
</svg>
