<svg width="36" height="45" viewBox="0 0 36 45" fill="none" xmlns="http://www.w3.org/2000/svg">
<g clip-path="url(#clip0_391_836)">
<path d="M26.3607 18.2739C24.882 18.2739 23.4365 18.7148 22.207 19.5407C20.9775 20.3667 20.0193 21.5407 19.4534 22.9142C18.8875 24.2877 18.7395 25.7991 19.0279 27.2572C19.3164 28.7153 20.0285 30.0547 21.0741 31.1059C22.1197 32.1571 23.4518 32.8731 24.9021 33.1631C26.3524 33.4531 27.8556 33.3043 29.2218 32.7353C30.5879 32.1664 31.7555 31.203 32.5771 29.9668C33.3986 28.7307 33.8371 27.2774 33.8371 25.7907C33.8352 23.7977 33.0469 21.8869 31.6452 20.4777C30.2435 19.0684 28.3429 18.2758 26.3607 18.2739ZM26.3607 32.2275C25.0944 32.2275 23.8566 31.85 22.8038 31.1427C21.751 30.4354 20.9304 29.4302 20.4458 28.254C19.9612 27.0778 19.8345 25.7836 20.0815 24.535C20.3285 23.2864 20.9383 22.1394 21.8336 21.2392C22.729 20.339 23.8698 19.726 25.1117 19.4776C26.3536 19.2292 27.6408 19.3567 28.8107 19.8439C29.9805 20.3311 30.9804 21.1561 31.6839 22.2146C32.3874 23.2732 32.7629 24.5176 32.7629 25.7907C32.761 27.4973 32.0858 29.1334 30.8856 30.3401C29.6854 31.5468 28.0581 32.2256 26.3607 32.2275Z" fill="#004A8D"/>
<path d="M3.4151 29.7601H18.2554C18.3979 29.7601 18.5345 29.7032 18.6352 29.6019C18.736 29.5006 18.7925 29.3633 18.7925 29.2201C18.7925 29.0768 18.736 28.9395 18.6352 28.8382C18.5345 28.737 18.3979 28.6801 18.2554 28.6801H3.4151C3.31703 28.6804 3.22282 28.6417 3.15314 28.5723C3.08345 28.5029 3.044 28.4086 3.04343 28.31V6.73734H24.4145C24.557 6.73734 24.6936 6.68045 24.7943 6.57918C24.895 6.47791 24.9516 6.34056 24.9516 6.19734C24.9516 6.05413 24.895 5.91677 24.7943 5.81551C24.6936 5.71424 24.557 5.65734 24.4145 5.65734H3.04343V4.14534C3.04353 4.04627 3.08272 3.95127 3.1524 3.88122C3.22208 3.81116 3.31656 3.77176 3.4151 3.77166H31.0935C31.1422 3.77137 31.1905 3.78086 31.2355 3.79958C31.2806 3.8183 31.3214 3.84587 31.3557 3.88068C31.39 3.91549 31.417 3.95683 31.4352 4.00227C31.4534 4.04772 31.4623 4.09636 31.4616 4.14534V19.0079C31.4616 19.1512 31.5182 19.2885 31.6189 19.3898C31.7196 19.491 31.8562 19.5479 31.9987 19.5479C32.1411 19.5479 32.2777 19.491 32.3785 19.3898C32.4792 19.2885 32.5358 19.1512 32.5358 19.0079V4.14606C32.5359 3.76112 32.3841 3.39186 32.1137 3.11932C31.8433 2.84679 31.4764 2.69324 31.0935 2.69238H3.4151C3.03178 2.69286 2.66429 2.84617 2.39325 3.11868C2.1222 3.3912 1.96971 3.76067 1.96924 4.14606V28.31C1.97019 28.6949 2.12294 29.0637 2.39399 29.3356C2.66504 29.6074 3.03226 29.7601 3.4151 29.7601Z" fill="#004A8D"/>
<path d="M6.53954 9.96403H7.58007C7.72252 9.96403 7.85913 9.90714 7.95986 9.80587C8.06058 9.7046 8.11717 9.56725 8.11717 9.42403C8.11717 9.28082 8.06058 9.14347 7.95986 9.0422C7.85913 8.94093 7.72252 8.88403 7.58007 8.88403H6.53954C6.39709 8.88403 6.26048 8.94093 6.15975 9.0422C6.05903 9.14347 6.00244 9.28082 6.00244 9.42403C6.00244 9.56725 6.05903 9.7046 6.15975 9.80587C6.26048 9.90714 6.39709 9.96403 6.53954 9.96403Z" fill="#004A8D"/>
<path d="M27.9646 8.88403H10.0088C9.86633 8.88403 9.72972 8.94093 9.62899 9.0422C9.52827 9.14347 9.47168 9.28082 9.47168 9.42403C9.47168 9.56725 9.52827 9.7046 9.62899 9.80587C9.72972 9.90714 9.86633 9.96403 10.0088 9.96403H27.9646C28.1071 9.96403 28.2437 9.90714 28.3444 9.80587C28.4451 9.7046 28.5017 9.56725 28.5017 9.42403C28.5017 9.28082 28.4451 9.14347 28.3444 9.0422C28.2437 8.94093 28.1071 8.88403 27.9646 8.88403Z" fill="#004A8D"/>
<path d="M22.4999 11.3162H6.53954C6.39709 11.3162 6.26048 11.3731 6.15975 11.4743C6.05903 11.5756 6.00244 11.7129 6.00244 11.8562C6.00244 11.9994 6.05903 12.1367 6.15975 12.238C6.26048 12.3393 6.39709 12.3962 6.53954 12.3962H22.4999C22.6424 12.3962 22.779 12.3393 22.8797 12.238C22.9804 12.1367 23.037 11.9994 23.037 11.8562C23.037 11.7129 22.9804 11.5756 22.8797 11.4743C22.779 11.3731 22.6424 11.3162 22.4999 11.3162Z" fill="#004A8D"/>
<path d="M27.9649 11.3162H24.5386C24.3961 11.3162 24.2595 11.3731 24.1588 11.4743C24.0581 11.5756 24.0015 11.7129 24.0015 11.8562C24.0015 11.9994 24.0581 12.1367 24.1588 12.238C24.2595 12.3393 24.3961 12.3962 24.5386 12.3962H27.9649C28.1073 12.3962 28.2439 12.3393 28.3447 12.238C28.4454 12.1367 28.502 11.9994 28.502 11.8562C28.502 11.7129 28.4454 11.5756 28.3447 11.4743C28.2439 11.3731 28.1073 11.3162 27.9649 11.3162Z" fill="#004A8D"/>
<path d="M8.27436 13.0964C7.82502 13.0964 7.38577 13.2304 7.01215 13.4814C6.63854 13.7324 6.34734 14.0891 6.17538 14.5065C6.00343 14.9239 5.95843 15.3832 6.0461 15.8263C6.13376 16.2694 6.35014 16.6764 6.66787 16.9958C6.98561 17.3153 7.39042 17.5328 7.83113 17.6209C8.27184 17.7091 8.72865 17.6638 9.14379 17.491C9.55893 17.3181 9.91375 17.0253 10.1634 16.6497C10.413 16.274 10.5463 15.8324 10.5463 15.3806C10.5456 14.775 10.306 14.1944 9.88012 13.7662C9.45419 13.338 8.87671 13.0971 8.27436 13.0964ZM8.27436 16.5848C8.03747 16.5848 7.80591 16.5142 7.60894 16.3819C7.41198 16.2496 7.25846 16.0615 7.16781 15.8415C7.07715 15.6214 7.05343 15.3793 7.09965 15.1457C7.14586 14.9121 7.25994 14.6975 7.42744 14.5291C7.59495 14.3607 7.80836 14.246 8.0407 14.1996C8.27303 14.1531 8.51386 14.177 8.73271 14.2681C8.95157 14.3592 9.13863 14.5136 9.27023 14.7116C9.40184 14.9096 9.47209 15.1425 9.47209 15.3806C9.4718 15.6999 9.34552 16.006 9.12097 16.2318C8.89641 16.4576 8.59193 16.5845 8.27436 16.5848Z" fill="#004A8D"/>
<path d="M8.27436 18.1721C7.82502 18.1721 7.38577 18.3061 7.01215 18.5571C6.63854 18.8081 6.34734 19.1648 6.17538 19.5822C6.00343 19.9996 5.95843 20.4589 6.0461 20.9019C6.13376 21.345 6.35014 21.752 6.66787 22.0715C6.98561 22.3909 7.39042 22.6085 7.83113 22.6966C8.27184 22.7848 8.72865 22.7395 9.14379 22.5666C9.55893 22.3938 9.91375 22.101 10.1634 21.7254C10.413 21.3497 10.5463 20.9081 10.5463 20.4563C10.5456 19.8507 10.306 19.2701 9.88012 18.8419C9.45419 18.4137 8.87671 18.1728 8.27436 18.1721ZM8.27436 21.6605C8.03747 21.6605 7.80591 21.5899 7.60894 21.4576C7.41198 21.3253 7.25846 21.1372 7.16781 20.9171C7.07715 20.6971 7.05343 20.455 7.09965 20.2214C7.14586 19.9878 7.25994 19.7732 7.42744 19.6048C7.59495 19.4364 7.80836 19.3217 8.0407 19.2753C8.27303 19.2288 8.51386 19.2526 8.73271 19.3438C8.95157 19.4349 9.13863 19.5893 9.27023 19.7873C9.40184 19.9853 9.47209 20.2182 9.47209 20.4563C9.4718 20.7756 9.34552 21.0817 9.12097 21.3075C8.89641 21.5333 8.59193 21.6602 8.27436 21.6605Z" fill="#004A8D"/>
<path d="M19.8872 20.458C19.8872 20.3148 19.8306 20.1774 19.7299 20.0761C19.6291 19.9749 19.4925 19.918 19.3501 19.918H12.1763C12.0338 19.918 11.8972 19.9749 11.7965 20.0761C11.6957 20.1774 11.6392 20.3148 11.6392 20.458C11.6392 20.6012 11.6957 20.7385 11.7965 20.8398C11.8972 20.9411 12.0338 20.998 12.1763 20.998H19.3501C19.4925 20.998 19.6291 20.9411 19.7299 20.8398C19.8306 20.7385 19.8872 20.6012 19.8872 20.458Z" fill="#004A8D"/>
<path d="M8.27436 23.2478C7.82502 23.2478 7.38577 23.3818 7.01215 23.6328C6.63854 23.8837 6.34734 24.2405 6.17538 24.6579C6.00343 25.0753 5.95843 25.5345 6.0461 25.9776C6.13376 26.4207 6.35014 26.8277 6.66787 27.1472C6.98561 27.4666 7.39042 27.6842 7.83113 27.7723C8.27184 27.8604 8.72865 27.8152 9.14379 27.6423C9.55893 27.4694 9.91375 27.1767 10.1634 26.801C10.413 26.4254 10.5463 25.9838 10.5463 25.532C10.5456 24.9264 10.306 24.3458 9.88012 23.9176C9.45419 23.4893 8.87671 23.2485 8.27436 23.2478ZM8.27436 26.7362C8.03747 26.7362 7.80591 26.6656 7.60894 26.5333C7.41198 26.4009 7.25846 26.2129 7.16781 25.9928C7.07715 25.7728 7.05343 25.5307 7.09965 25.2971C7.14586 25.0635 7.25994 24.8489 7.42744 24.6805C7.59495 24.5121 7.80836 24.3974 8.0407 24.3509C8.27303 24.3045 8.51386 24.3283 8.73271 24.4195C8.95157 24.5106 9.13863 24.665 9.27023 24.863C9.40184 25.061 9.47209 25.2938 9.47209 25.532C9.4718 25.8513 9.34552 26.1574 9.12097 26.3832C8.89641 26.609 8.59193 26.7359 8.27436 26.7362Z" fill="#004A8D"/>
<path d="M26.5066 6.73747C26.6491 6.73747 26.7857 6.68058 26.8864 6.57931C26.9871 6.47804 27.0437 6.34069 27.0437 6.19747C27.0437 6.05425 26.9871 5.9169 26.8864 5.81563C26.7857 5.71436 26.6491 5.65747 26.5066 5.65747H26.1059C25.9635 5.65747 25.8269 5.71436 25.7262 5.81563C25.6254 5.9169 25.5688 6.05425 25.5688 6.19747C25.5688 6.34069 25.6254 6.47804 25.7262 6.57931C25.8269 6.68058 25.9635 6.73747 26.1059 6.73747H26.5066Z" fill="#004A8D"/>
<path d="M29.0255 6.19747C29.0255 6.05425 28.9689 5.9169 28.8682 5.81563C28.7675 5.71436 28.6309 5.65747 28.4884 5.65747H28.0874C27.9449 5.65747 27.8083 5.71436 27.7076 5.81563C27.6069 5.9169 27.5503 6.05425 27.5503 6.19747C27.5503 6.34069 27.6069 6.47804 27.7076 6.57931C27.8083 6.68058 27.9449 6.73747 28.0874 6.73747H28.4884C28.6309 6.73747 28.7675 6.68058 28.8682 6.57931C28.9689 6.47804 29.0255 6.34069 29.0255 6.19747Z" fill="#004A8D"/>
<path d="M30.0688 5.65747C29.9264 5.65747 29.7898 5.71436 29.689 5.81563C29.5883 5.9169 29.5317 6.05425 29.5317 6.19747C29.5317 6.34069 29.5883 6.47804 29.689 6.57931C29.7898 6.68058 29.9264 6.73747 30.0688 6.73747H30.4692C30.6116 6.73747 30.7482 6.68058 30.8489 6.57931C30.9497 6.47804 31.0062 6.34069 31.0062 6.19747C31.0062 6.05425 30.9497 5.9169 30.8489 5.81563C30.7482 5.71436 30.6116 5.65747 30.4692 5.65747H30.0688Z" fill="#004A8D"/>
<path d="M29.7664 23.9847H28.1552V22.3665C28.1548 22.0638 28.035 21.7736 27.8221 21.5595C27.6092 21.3454 27.3205 21.225 27.0194 21.2246H25.6996C25.3983 21.2247 25.1094 21.345 24.8963 21.5591C24.6832 21.7732 24.5633 22.0636 24.5631 22.3665V23.9847H22.9518C22.6509 23.9858 22.3627 24.1067 22.1503 24.321C21.9379 24.5353 21.8188 24.8256 21.8188 25.1281V26.4565C21.8191 26.7592 21.9388 27.0494 22.1517 27.2635C22.3646 27.4776 22.6532 27.598 22.9543 27.5984H24.5656V29.2184C24.5658 29.5211 24.6855 29.8113 24.8984 30.0254C25.1113 30.2395 25.3999 30.3599 25.701 30.3603H27.0226C27.3237 30.3599 27.6124 30.2395 27.8253 30.0254C28.0382 29.8114 28.158 29.5211 28.1584 29.2184V27.5984H29.7697C30.0702 27.5968 30.3579 27.4756 30.5699 27.2614C30.7818 27.0471 30.9008 26.7572 30.9008 26.455V25.1281C30.9008 24.8254 30.7814 24.535 30.5687 24.3206C30.3561 24.1063 30.0676 23.9855 29.7664 23.9847ZM29.828 26.455C29.828 26.4715 29.8215 26.4872 29.81 26.4988C29.7984 26.5104 29.7828 26.517 29.7664 26.517H27.6181C27.4756 26.517 27.339 26.5739 27.2383 26.6751C27.1376 26.7764 27.081 26.9138 27.081 27.057V29.217C27.081 29.2334 27.0745 29.2491 27.0629 29.2608C27.0514 29.2724 27.0357 29.2789 27.0194 29.2789H25.6996C25.6833 29.2788 25.6677 29.2722 25.6562 29.2606C25.6448 29.249 25.6383 29.2333 25.6383 29.217V27.057C25.6383 26.9138 25.5817 26.7764 25.481 26.6751C25.3803 26.5739 25.2437 26.517 25.1012 26.517H22.9528C22.9366 26.5169 22.921 26.5103 22.9095 26.4987C22.898 26.4871 22.8916 26.4714 22.8916 26.455V25.1281C22.8916 25.1117 22.898 25.096 22.9095 25.0844C22.921 25.0728 22.9366 25.0663 22.9528 25.0662H25.1012C25.2437 25.0662 25.3803 25.0093 25.481 24.908C25.5817 24.8067 25.6383 24.6694 25.6383 24.5262V22.3665C25.6383 22.3502 25.6448 22.3345 25.6562 22.3229C25.6677 22.3113 25.6833 22.3047 25.6996 22.3046H27.0212C27.0375 22.3046 27.0532 22.3111 27.0647 22.3227C27.0763 22.3344 27.0828 22.3501 27.0828 22.3665V24.5247C27.0828 24.6679 27.1393 24.8053 27.2401 24.9066C27.3408 25.0078 27.4774 25.0647 27.6199 25.0647H29.7682C29.7846 25.0647 29.8002 25.0713 29.8118 25.0829C29.8233 25.0945 29.8298 25.1102 29.8298 25.1266L29.828 26.455Z" fill="#004A8D"/>
</g>
<defs>
<clipPath id="clip0_391_836">
<rect width="35.8064" height="45" fill="white"/>
</clipPath>
</defs>
</svg>
