<svg width="36" height="41" viewBox="0 0 36 41" fill="none" xmlns="http://www.w3.org/2000/svg">
<path d="M32.5301 3.54663H3.47483C3.07868 3.54698 2.69886 3.69049 2.4187 3.94568C2.13855 4.20087 1.98095 4.54689 1.98047 4.90783V27.8921C1.98095 28.2531 2.13854 28.5991 2.41868 28.8544C2.69883 29.1096 3.07865 29.2532 3.47483 29.2536H32.5268C32.9229 29.253 33.3025 29.1094 33.5825 28.8541C33.8625 28.5989 34.02 28.253 34.0205 27.8921V4.90783C34.0205 4.54739 33.8636 4.20166 33.5842 3.94648C33.3048 3.69129 32.9257 3.5475 32.5301 3.54663ZM32.9405 27.8921C32.9404 27.9922 32.8967 28.0882 32.819 28.159C32.7413 28.2297 32.636 28.2695 32.5261 28.2696H3.47483C3.36496 28.2695 3.25962 28.2297 3.18194 28.159C3.10425 28.0882 3.06056 27.9922 3.06047 27.8921V7.3511H25.5194C25.6626 7.3511 25.8 7.29927 25.9013 7.207C26.0025 7.11473 26.0594 6.98959 26.0594 6.8591C26.0594 6.72862 26.0025 6.60347 25.9013 6.51121C25.8 6.41894 25.6626 6.3671 25.5194 6.3671H3.06047V4.90783C3.06056 4.80776 3.10426 4.71182 3.18196 4.64109C3.25966 4.57036 3.365 4.53063 3.47483 4.53063H32.5301C32.5844 4.53027 32.6382 4.53981 32.6884 4.55868C32.7386 4.57756 32.7842 4.60538 32.8224 4.64052C32.8607 4.67566 32.8908 4.71741 32.9111 4.76332C32.9313 4.80922 32.9413 4.85836 32.9405 4.90783V27.8921Z" fill="#004A8D"/>
<path d="M27.2949 7.35119H27.7157C27.8589 7.35119 27.9963 7.29935 28.0976 7.20708C28.1988 7.11482 28.2557 6.98967 28.2557 6.85919C28.2557 6.7287 28.1988 6.60356 28.0976 6.51129C27.9963 6.41902 27.8589 6.36719 27.7157 6.36719H27.2949C27.1517 6.36719 27.0143 6.41902 26.913 6.51129C26.8118 6.60356 26.7549 6.7287 26.7549 6.85919C26.7549 6.98967 26.8118 7.11482 26.913 7.20708C27.0143 7.29935 27.1517 7.35119 27.2949 7.35119Z" fill="#004A8D"/>
<path d="M29.7953 6.36719H29.3759C29.2327 6.36719 29.0954 6.41902 28.9941 6.51129C28.8928 6.60356 28.8359 6.7287 28.8359 6.85919C28.8359 6.98967 28.8928 7.11482 28.9941 7.20708C29.0954 7.29935 29.2327 7.35119 29.3759 7.35119H29.7964C29.9396 7.35119 30.077 7.29935 30.1783 7.20708C30.2795 7.11482 30.3364 6.98967 30.3364 6.85919C30.3364 6.7287 30.2795 6.60356 30.1783 6.51129C30.077 6.41902 29.9396 6.36719 29.7964 6.36719H29.7953Z" fill="#004A8D"/>
<path d="M31.8755 6.36719H31.455C31.3118 6.36719 31.1745 6.41902 31.0732 6.51129C30.9719 6.60356 30.915 6.7287 30.915 6.85919C30.915 6.98967 30.9719 7.11482 31.0732 7.20708C31.1745 7.29935 31.3118 7.35119 31.455 7.35119H31.8755C32.0187 7.35119 32.1561 7.29935 32.2574 7.20708C32.3586 7.11482 32.4155 6.98967 32.4155 6.85919C32.4155 6.7287 32.3586 6.60356 32.2574 6.51129C32.1561 6.41902 32.0187 6.36719 31.8755 6.36719Z" fill="#004A8D"/>
<path d="M9.74913 14.5142C10.282 14.5144 10.8033 14.373 11.2492 14.1072C11.3683 14.0355 11.4514 13.9238 11.4804 13.7965C11.5094 13.6692 11.4818 13.5366 11.4038 13.4277C11.3258 13.3188 11.2036 13.2425 11.064 13.2154C10.9244 13.1884 10.7788 13.2127 10.6588 13.2832C10.4442 13.4121 10.1995 13.4935 9.94423 13.5209C9.68895 13.5483 9.43018 13.521 9.18856 13.4411C8.94693 13.3612 8.72914 13.231 8.55256 13.0608C8.37597 12.8906 8.24549 12.6852 8.1715 12.4609C8.09752 12.2366 8.08209 11.9997 8.12644 11.769C8.17079 11.5383 8.2737 11.3203 8.42695 11.1323C8.5802 10.9442 8.77956 10.7915 9.00912 10.6861C9.23868 10.5807 9.49209 10.5257 9.74913 10.5254C10.0452 10.5248 10.336 10.5973 10.5904 10.7353C10.6513 10.7694 10.7189 10.792 10.7894 10.8021C10.8599 10.8122 10.9319 10.8094 11.0012 10.794C11.0705 10.7785 11.1358 10.7507 11.1933 10.7121C11.2507 10.6736 11.2992 10.625 11.3359 10.5693C11.3727 10.5135 11.3969 10.4517 11.4072 10.3874C11.4176 10.323 11.4138 10.2575 11.3962 10.1945C11.3786 10.1315 11.3474 10.0723 11.3045 10.0203C11.2616 9.96834 11.2078 9.92464 11.1463 9.89172C10.7854 9.69593 10.3797 9.5787 9.96087 9.54916C9.54207 9.51963 9.12143 9.57858 8.73172 9.72144C8.34202 9.8643 7.99378 10.0872 7.71412 10.3728C7.43447 10.6584 7.23095 10.9989 7.11942 11.3679C7.00789 11.7369 6.99137 12.1243 7.07113 12.5001C7.1509 12.8759 7.3248 13.2298 7.57929 13.5343C7.83378 13.8387 8.16199 14.0856 8.53835 14.2556C8.91472 14.4255 9.32907 14.5141 9.74913 14.5142Z" fill="#004A8D"/>
<path d="M28.4396 11.5356H13.9043C13.761 11.5356 13.6237 11.5875 13.5224 11.6797C13.4212 11.772 13.3643 11.8972 13.3643 12.0276C13.3643 12.1581 13.4212 12.2833 13.5224 12.3755C13.6237 12.4678 13.761 12.5196 13.9043 12.5196H28.4396C28.5828 12.5196 28.7202 12.4678 28.8215 12.3755C28.9227 12.2833 28.9796 12.1581 28.9796 12.0276C28.9796 11.8972 28.9227 11.772 28.8215 11.6797C28.7202 11.5875 28.5828 11.5356 28.4396 11.5356Z" fill="#004A8D"/>
<path d="M11.8235 10.5825L10.5275 11.7617L10.1315 11.4009C10.0817 11.3539 10.0221 11.3164 9.95626 11.2906C9.89038 11.2648 9.81952 11.2513 9.74782 11.2507C9.67612 11.2501 9.60501 11.2626 9.53865 11.2873C9.47228 11.3121 9.41199 11.3486 9.36129 11.3948C9.31059 11.441 9.27049 11.4959 9.24334 11.5564C9.21619 11.6168 9.20252 11.6816 9.20315 11.747C9.20377 11.8123 9.21866 11.8768 9.24697 11.9369C9.27527 11.9969 9.3164 12.0512 9.36798 12.0966L10.1467 12.806C10.2479 12.8983 10.3853 12.9501 10.5284 12.9501C10.6716 12.9501 10.809 12.8983 10.9102 12.806L12.5867 11.2789C12.6851 11.1861 12.7395 11.0618 12.7383 10.9328C12.7371 10.8038 12.6803 10.6804 12.5802 10.5892C12.48 10.498 12.3446 10.4462 12.203 10.4451C12.0614 10.444 11.925 10.4936 11.8232 10.5832L11.8235 10.5825Z" fill="#004A8D"/>
<path d="M9.74878 20.1065C10.2816 20.1067 10.803 19.9652 11.2489 19.6995C11.3087 19.6643 11.3603 19.6187 11.4007 19.5654C11.4411 19.512 11.4695 19.4519 11.4843 19.3885C11.4991 19.3251 11.5 19.2596 11.487 19.1959C11.4739 19.1321 11.4472 19.0714 11.4083 19.0171C11.3694 18.9628 11.3191 18.9161 11.2603 18.8795C11.2015 18.843 11.1354 18.8174 11.0657 18.8043C10.996 18.7911 10.9242 18.7907 10.8543 18.8029C10.7844 18.8151 10.7179 18.8398 10.6585 18.8755C10.4438 19.0045 10.199 19.086 9.94366 19.1135C9.68829 19.1409 9.4294 19.1136 9.18767 19.0337C8.94593 18.9539 8.72803 18.8236 8.55136 18.6534C8.37469 18.4831 8.24415 18.2776 8.17014 18.0532C8.09614 17.8288 8.08072 17.5918 8.12512 17.361C8.16952 17.1303 8.27251 16.9121 8.42587 16.7241C8.57923 16.536 8.77872 16.3832 9.00841 16.2779C9.2381 16.1725 9.49164 16.1176 9.74878 16.1174C10.0449 16.1166 10.3357 16.1891 10.5901 16.3273C10.7132 16.3944 10.8605 16.4143 10.9996 16.3825C11.1388 16.3507 11.2584 16.2698 11.3321 16.1577C11.4058 16.0456 11.4276 15.9114 11.3927 15.7846C11.3578 15.6578 11.269 15.5489 11.1459 15.4817C10.785 15.2867 10.3795 15.1702 9.961 15.1412C9.54253 15.1122 9.12237 15.1716 8.73318 15.3146C8.34399 15.4577 7.99626 15.6806 7.71703 15.9661C7.43781 16.2515 7.23461 16.5918 7.12323 16.9605C7.01186 17.3291 6.99532 17.7162 7.07489 18.0917C7.15446 18.4671 7.328 18.8208 7.58202 19.1251C7.83603 19.4295 8.16368 19.6764 8.53948 19.8466C8.91528 20.0168 9.32911 20.1058 9.74878 20.1065Z" fill="#004A8D"/>
<path d="M28.4396 17.127H13.9043C13.761 17.127 13.6237 17.1788 13.5224 17.2711C13.4212 17.3633 13.3643 17.4885 13.3643 17.619C13.3643 17.7494 13.4212 17.8746 13.5224 17.9669C13.6237 18.0591 13.761 18.111 13.9043 18.111H28.4396C28.5828 18.111 28.7202 18.0591 28.8215 17.9669C28.9227 17.8746 28.9796 17.7494 28.9796 17.619C28.9796 17.4885 28.9227 17.3633 28.8215 17.2711C28.7202 17.1788 28.5828 17.127 28.4396 17.127Z" fill="#004A8D"/>
<path d="M11.8239 16.1733L10.5279 17.3541L10.1319 16.9933C10.0301 16.9036 9.89369 16.854 9.7521 16.8552C9.61052 16.8563 9.47508 16.908 9.37496 16.9992C9.27484 17.0905 9.21805 17.2139 9.21682 17.3429C9.21559 17.4719 9.27002 17.5961 9.36838 17.6889L10.1471 18.3984C10.2483 18.4906 10.3857 18.5425 10.5288 18.5425C10.672 18.5425 10.8094 18.4906 10.9106 18.3984L12.5871 16.8709C12.6855 16.7781 12.7399 16.6538 12.7387 16.5248C12.7375 16.3958 12.6807 16.2724 12.5806 16.1812C12.4804 16.09 12.345 16.0382 12.2034 16.0371C12.0618 16.036 11.9254 16.0856 11.8236 16.1752L11.8239 16.1733Z" fill="#004A8D"/>
<path d="M10.6585 24.4651C10.4439 24.594 10.1992 24.6753 9.94392 24.7027C9.68865 24.7301 9.42988 24.7028 9.18825 24.6229C8.94663 24.543 8.72884 24.4128 8.55225 24.2426C8.37567 24.0724 8.24518 23.867 8.1712 23.6427C8.09721 23.4185 8.08178 23.1815 8.12613 22.9508C8.17048 22.7202 8.27339 22.5021 8.42664 22.3141C8.5799 22.1261 8.77926 21.9733 9.00882 21.8679C9.23837 21.7626 9.49178 21.7076 9.74882 21.7073C10.045 21.7065 10.3358 21.779 10.5901 21.9172C10.651 21.9512 10.7186 21.9739 10.7891 21.984C10.8596 21.994 10.9316 21.9913 11.0009 21.9758C11.0702 21.9604 11.1355 21.9326 11.1929 21.894C11.2504 21.8554 11.2989 21.8069 11.3356 21.7511C11.3724 21.6954 11.3966 21.6335 11.4069 21.5692C11.4173 21.5049 11.4135 21.4393 11.3959 21.3763C11.3783 21.3133 11.3471 21.2541 11.3042 21.2021C11.2613 21.1502 11.2075 21.1065 11.146 21.0736C10.7274 20.847 10.2498 20.7266 9.76291 20.7249C9.276 20.7232 8.79746 20.8402 8.37696 21.0639C7.95647 21.2876 7.60935 21.6098 7.37163 21.997C7.13391 22.3841 7.01426 22.8222 7.02509 23.2657C7.03592 23.7093 7.17685 24.1421 7.43324 24.5192C7.68963 24.8964 8.05213 25.2041 8.48314 25.4106C8.91414 25.617 9.39792 25.7146 9.88427 25.6931C10.3706 25.6717 10.8418 25.5321 11.2489 25.2887C11.3087 25.2536 11.3603 25.208 11.4007 25.1546C11.4411 25.1012 11.4695 25.0411 11.4843 24.9777C11.4991 24.9143 11.5 24.8488 11.487 24.7851C11.474 24.7214 11.4472 24.6606 11.4083 24.6063C11.3694 24.5521 11.3191 24.5053 11.2603 24.4688C11.2015 24.4323 11.1354 24.4067 11.0657 24.3935C10.9961 24.3804 10.9242 24.3799 10.8543 24.3921C10.7845 24.4043 10.7179 24.4294 10.6585 24.4651Z" fill="#004A8D"/>
<path d="M28.4396 22.7175H13.9043C13.761 22.7175 13.6237 22.7694 13.5224 22.8616C13.4212 22.9539 13.3643 23.079 13.3643 23.2095C13.3643 23.34 13.4212 23.4652 13.5224 23.5574C13.6237 23.6497 13.761 23.7015 13.9043 23.7015H28.4396C28.5828 23.7015 28.7202 23.6497 28.8215 23.5574C28.9227 23.4652 28.9796 23.34 28.9796 23.2095C28.9796 23.079 28.9227 22.9539 28.8215 22.8616C28.7202 22.7694 28.5828 22.7175 28.4396 22.7175Z" fill="#004A8D"/>
<path d="M11.8239 21.7641L10.5279 22.9449L10.1319 22.5841C10.0301 22.4945 9.89369 22.4449 9.7521 22.446C9.61052 22.4472 9.47508 22.4989 9.37496 22.5901C9.27484 22.6813 9.21805 22.8047 9.21682 22.9338C9.21559 23.0628 9.27002 23.187 9.36838 23.2798L10.1471 23.9893C10.2483 24.0815 10.3857 24.1333 10.5288 24.1333C10.672 24.1333 10.8094 24.0815 10.9106 23.9893L12.5871 22.4621C12.6373 22.4164 12.6771 22.3622 12.7042 22.3025C12.7314 22.2428 12.7454 22.1788 12.7454 22.1142C12.7454 22.0496 12.7315 21.9856 12.7043 21.9259C12.6772 21.8662 12.6375 21.812 12.5873 21.7663C12.5372 21.7206 12.4777 21.6843 12.4121 21.6596C12.3466 21.6348 12.2764 21.6221 12.2055 21.6221C12.1346 21.6221 12.0643 21.6348 11.9988 21.6595C11.9333 21.6842 11.8737 21.7204 11.8236 21.7661L11.8239 21.7641Z" fill="#004A8D"/>
</svg>
