<svg width="36" height="45" viewBox="0 0 36 45" fill="none" xmlns="http://www.w3.org/2000/svg">
<path fill-rule="evenodd" clip-rule="evenodd" d="M9.203 37.3072H10.9255C11.0299 37.3072 11.1301 37.3489 11.204 37.4232C11.2779 37.4975 11.3194 37.5982 11.3194 37.7032V42.5798C11.3194 42.6848 11.2779 42.7855 11.204 42.8598C11.1301 42.9341 11.0299 42.9758 10.9255 42.9758H9.203C9.15127 42.9758 9.10005 42.9655 9.05226 42.9456C9.00447 42.9257 8.96104 42.8966 8.92447 42.8598C8.88789 42.823 8.85887 42.7794 8.83908 42.7313C8.81928 42.6833 8.80909 42.6318 8.80909 42.5798V37.7036C8.80909 37.6516 8.81928 37.6001 8.83908 37.552C8.85887 37.504 8.88789 37.4603 8.92447 37.4236C8.96104 37.3868 9.00447 37.3576 9.05226 37.3377C9.10005 37.3178 9.15127 37.3072 9.203 37.3072ZM10.5312 38.0992H9.59691V42.1834H10.5305V38.1003L10.5312 38.0992ZM6.11725 39.8632H7.83972C7.94419 39.8632 8.04438 39.9049 8.11825 39.9792C8.19212 40.0535 8.23363 40.1542 8.23363 40.2592V42.5798C8.23363 42.6848 8.19212 42.7855 8.11825 42.8598C8.04438 42.9341 7.94419 42.9758 7.83972 42.9758H6.11725C6.01278 42.9758 5.91259 42.9341 5.83872 42.8598C5.76485 42.7855 5.72334 42.6848 5.72334 42.5798V40.2592C5.72334 40.1542 5.76485 40.0535 5.83872 39.9792C5.91259 39.9049 6.01278 39.8632 6.11725 39.8632ZM7.44545 40.6552H6.51188V42.1827H7.44545V40.6559V40.6552ZM12.2891 38.4304H14.0112C14.1157 38.4304 14.2159 38.4721 14.2897 38.5464C14.3636 38.6207 14.4051 38.7214 14.4051 38.8264V42.5798C14.4051 42.6848 14.3636 42.7855 14.2897 42.8598C14.2159 42.9341 14.1157 42.9758 14.0112 42.9758H12.2891C12.1846 42.9758 12.0844 42.9341 12.0106 42.8598C11.9367 42.7855 11.8952 42.6848 11.8952 42.5798V38.8279C11.8952 38.7228 11.9367 38.6221 12.0106 38.5478C12.0844 38.4736 12.1846 38.4319 12.2891 38.4319V38.4304ZM13.6169 39.2224H12.6834V42.1816H13.6169V39.2224ZM15.3749 35.6149H17.097C17.2014 35.6149 17.3016 35.6566 17.3755 35.7308C17.4494 35.8051 17.4909 35.9058 17.4909 36.0109V42.5798C17.4909 42.6848 17.4494 42.7855 17.3755 42.8598C17.3016 42.9341 17.2014 42.9758 17.097 42.9758H15.3749C15.2704 42.9758 15.1702 42.9341 15.0963 42.8598C15.0224 42.7855 14.9809 42.6848 14.9809 42.5798V36.013C14.9809 35.908 15.0224 35.8073 15.0963 35.733C15.1702 35.6587 15.2704 35.617 15.3749 35.617V35.6149ZM16.7027 36.4069H15.7691V42.1834H16.7027V36.4097V36.4069ZM15.1331 32.4274L15.9568 32.395L12.4735 35.5223L9.46549 34.2688C9.39347 34.2387 9.31419 34.2308 9.23769 34.2461C9.16119 34.2613 9.09091 34.2991 9.03577 34.3545L5.60553 37.5801C5.52908 37.6517 5.48405 37.7509 5.48036 37.8559C5.47666 37.9609 5.5146 38.063 5.58583 38.1399C5.65706 38.2168 5.75575 38.262 5.86018 38.2657C5.96461 38.2695 6.06623 38.2313 6.14268 38.1597L9.40139 35.0975L12.4016 36.3475C12.4701 36.3757 12.5452 36.3839 12.6181 36.3711C12.6911 36.3584 12.759 36.3252 12.8141 36.2755L16.6776 32.8069L16.717 33.745C16.7158 33.7991 16.7255 33.8529 16.7457 33.903C16.7659 33.9531 16.7961 33.9986 16.8345 34.0365C16.8728 34.0745 16.9185 34.1041 16.9687 34.1236C17.0189 34.1432 17.0725 34.1521 17.1262 34.15C17.18 34.1479 17.2328 34.1347 17.2813 34.1113C17.3298 34.0879 17.373 34.0548 17.4083 34.0139C17.4436 33.9731 17.4701 33.9254 17.4864 33.8738C17.5026 33.8222 17.5082 33.7679 17.5027 33.7141L17.4286 31.9403C17.4243 31.8359 17.3791 31.7375 17.3029 31.6664C17.2267 31.5953 17.1256 31.5574 17.0218 31.5609L15.1059 31.6354C15.0015 31.6391 14.9027 31.6843 14.8314 31.7612C14.7601 31.8381 14.7221 31.9403 14.7258 32.0453C14.7295 32.1503 14.7745 32.2496 14.8509 32.3212C14.9274 32.3929 15.029 32.4311 15.1335 32.4274H15.1331ZM20.8205 27.2758C20.7438 27.271 20.6702 27.2438 20.6087 27.1975C20.5472 27.1512 20.5005 27.0878 20.4744 27.0152C20.4483 26.9425 20.4438 26.8638 20.4617 26.7886C20.4795 26.7135 20.5188 26.6453 20.5748 26.5923C20.6307 26.5393 20.7008 26.504 20.7765 26.4906C20.8522 26.4772 20.9301 26.4863 21.0007 26.5169C21.0712 26.5474 21.1314 26.5981 21.1737 26.6626C21.216 26.7271 21.2386 26.8026 21.2387 26.8798C21.2388 26.934 21.2279 26.9875 21.2066 27.0372C21.1853 27.087 21.1541 27.1317 21.1149 27.1689C21.0757 27.206 21.0294 27.2346 20.9787 27.253C20.9281 27.2714 20.8742 27.2792 20.8205 27.2758ZM22.9154 27.2758C22.8109 27.2758 22.7107 27.2341 22.6368 27.1598C22.563 27.0856 22.5215 26.9848 22.5215 26.8798C22.5215 26.7748 22.563 26.6741 22.6368 26.5998C22.7107 26.5255 22.8109 26.4838 22.9154 26.4838H28.0441C28.1485 26.4838 28.2487 26.5255 28.3226 26.5998C28.3965 26.6741 28.438 26.7748 28.438 26.8798C28.438 26.9848 28.3965 27.0856 28.3226 27.1598C28.2487 27.2341 28.1485 27.2758 28.0441 27.2758H22.9154ZM20.8205 29.3638C20.7438 29.359 20.6702 29.3318 20.6087 29.2855C20.5472 29.2392 20.5005 29.1758 20.4744 29.1032C20.4483 29.0305 20.4438 28.9518 20.4617 28.8766C20.4795 28.8015 20.5188 28.7333 20.5748 28.6803C20.6307 28.6273 20.7008 28.592 20.7765 28.5786C20.8522 28.5652 20.9301 28.5743 21.0007 28.6049C21.0712 28.6354 21.1314 28.6861 21.1737 28.7506C21.216 28.8151 21.2386 28.8906 21.2387 28.9678C21.2388 29.022 21.2279 29.0755 21.2066 29.1252C21.1853 29.175 21.1541 29.2197 21.1149 29.2569C21.0757 29.294 21.0294 29.3226 20.9787 29.341C20.9281 29.3594 20.8742 29.3672 20.8205 29.3638ZM22.9154 29.3638C22.8109 29.3638 22.7107 29.3221 22.6368 29.2478C22.563 29.1736 22.5215 29.0728 22.5215 28.9678C22.5215 28.8628 22.563 28.7621 22.6368 28.6878C22.7107 28.6135 22.8109 28.5718 22.9154 28.5718H28.0441C28.1485 28.5718 28.2487 28.6135 28.3226 28.6878C28.3965 28.7621 28.438 28.8628 28.438 28.9678C28.438 29.0728 28.3965 29.1736 28.3226 29.2478C28.2487 29.3221 28.1485 29.3638 28.0441 29.3638H22.9154ZM20.8205 31.4518C20.7438 31.447 20.6702 31.4198 20.6087 31.3735C20.5472 31.3272 20.5005 31.2638 20.4744 31.1912C20.4483 31.1185 20.4438 31.0398 20.4617 30.9646C20.4795 30.8895 20.5188 30.8213 20.5748 30.7683C20.6307 30.7153 20.7008 30.68 20.7765 30.6666C20.8522 30.6532 20.9301 30.6623 21.0007 30.6929C21.0712 30.7234 21.1314 30.7741 21.1737 30.8386C21.216 30.9031 21.2386 30.9786 21.2387 31.0558C21.2388 31.11 21.2279 31.1635 21.2066 31.2132C21.1853 31.263 21.1541 31.3077 21.1149 31.3449C21.0757 31.382 21.0294 31.4106 20.9787 31.429C20.9281 31.4474 20.8742 31.4552 20.8205 31.4518ZM22.9154 31.4518C22.8109 31.4518 22.7107 31.4101 22.6368 31.3358C22.563 31.2616 22.5215 31.1608 22.5215 31.0558C22.5215 30.9508 22.563 30.8501 22.6368 30.7758C22.7107 30.7015 22.8109 30.6598 22.9154 30.6598H28.0441C28.1485 30.6598 28.2487 30.7015 28.3226 30.7758C28.3965 30.8501 28.438 30.9508 28.438 31.0558C28.438 31.1608 28.3965 31.2616 28.3226 31.3358C28.2487 31.4101 28.1485 31.4518 28.0441 31.4518H22.9154ZM25.4274 38.3401L26.351 37.6708V36.4155C26.1474 36.4537 25.9556 36.5395 25.7911 36.666C25.6266 36.7925 25.4941 36.9561 25.4041 37.1437C25.3142 37.3312 25.2695 37.5374 25.2735 37.7456C25.2776 37.9537 25.3303 38.158 25.4274 38.3419V38.3401ZM27.1399 35.3121C27.5432 35.3749 27.926 35.533 28.2566 35.7736C28.5873 36.0141 28.8565 36.33 29.042 36.6955C29.2275 37.061 29.324 37.4655 29.3236 37.8759C29.3233 38.2862 29.226 38.6905 29.0399 39.0557C28.8538 39.4208 28.5841 39.7363 28.253 39.9763C27.9219 40.2162 27.5388 40.3737 27.1354 40.4357C26.7319 40.4978 26.3196 40.4627 25.9323 40.3333C25.545 40.2039 25.1937 39.984 24.9075 39.6915L26.9486 38.2137C27.0074 38.1786 27.056 38.1288 27.0898 38.0691C27.1236 38.0093 27.1413 37.9418 27.1413 37.8731V35.3121H27.1399ZM24.4899 37.8875L22.3055 35.6915H19.1471C19.0426 35.6915 18.9424 35.6498 18.8685 35.5756C18.7947 35.5013 18.7532 35.4006 18.7532 35.2955C18.7532 35.1905 18.7947 35.0898 18.8685 35.0155C18.9424 34.9413 19.0426 34.8995 19.1471 34.8995H22.4713C22.5231 34.8995 22.5745 34.9098 22.6223 34.9297C22.6702 34.9497 22.7137 34.9789 22.7503 35.0158L24.6403 36.9155C24.7834 36.5644 25.0176 36.2582 25.3185 36.0291C25.6194 35.8 25.976 35.6563 26.351 35.6131V34.8862C26.351 34.7812 26.3925 34.6805 26.4664 34.6062C26.5402 34.5319 26.6404 34.4902 26.7449 34.4902C27.3215 34.49 27.8884 34.6387 28.3914 34.922C28.8944 35.2054 29.3166 35.6138 29.6175 36.1083C29.9184 36.6027 30.0879 37.1666 30.1098 37.7458C30.1317 38.325 30.0052 38.9002 29.7425 39.4162C29.4797 39.9321 29.0896 40.3716 28.6094 40.6925C28.1292 41.0133 27.5751 41.2048 27.0002 41.2486C26.4252 41.2923 25.8488 41.1869 25.326 40.9423C24.8032 40.6978 24.3517 40.3224 24.0147 39.8521C23.9541 39.7669 23.9294 39.6611 23.9462 39.5577C23.963 39.4544 24.0198 39.3619 24.1043 39.3005L24.7846 38.8073C24.617 38.5283 24.5162 38.2139 24.4903 37.889L24.4899 37.8875ZM31.9348 25.1601H3.87483V43.6472H31.9348V25.1601ZM3.08594 24.7641V44.0435C3.08594 44.1486 3.12744 44.2493 3.20131 44.3236C3.27518 44.3978 3.37538 44.4395 3.47985 44.4395H32.3291C32.4336 44.4395 32.5338 44.3978 32.6076 44.3236C32.6815 44.2493 32.723 44.1486 32.723 44.0435V21.4233C32.7218 20.9295 32.5261 20.4563 32.1787 20.1072C31.8314 19.7581 31.3607 19.5614 30.8695 19.5603H4.93946C4.44829 19.5614 3.97755 19.7581 3.6302 20.1072C3.28285 20.4563 3.08717 20.9295 3.08594 21.4233V24.7641ZM31.9348 24.3681H3.87483V21.4233C3.87596 21.1398 3.98849 20.8682 4.18791 20.6678C4.38732 20.4673 4.65745 20.3542 4.93946 20.353H30.8702C31.1522 20.3542 31.4223 20.4673 31.6218 20.6678C31.8212 20.8682 31.9337 21.1398 31.9348 21.4233V24.3681ZM30.7001 21.8017C30.8046 21.8017 30.9048 21.8434 30.9786 21.9176C31.0525 21.9919 31.094 22.0926 31.094 22.1977C31.094 22.3027 31.0525 22.4034 30.9786 22.4777C30.9048 22.5519 30.8046 22.5937 30.7001 22.5937H21.9707C21.8662 22.5937 21.766 22.5519 21.6922 22.4777C21.6183 22.4034 21.5768 22.3027 21.5768 22.1977C21.5768 22.0926 21.6183 21.9919 21.6922 21.9176C21.766 21.8434 21.8662 21.8017 21.9707 21.8017H30.7001ZM10.1452 21.9122V22.81H5.96721V21.9111L10.1452 21.9122ZM5.57402 21.1202H10.5387C10.5904 21.1202 10.6417 21.1304 10.6895 21.1503C10.7372 21.1702 10.7807 21.1994 10.8173 21.2362C10.8538 21.2729 10.8828 21.3166 10.9026 21.3646C10.9224 21.4127 10.9326 21.4642 10.9326 21.5162V23.2082C10.9326 23.3132 10.8911 23.4139 10.8173 23.4882C10.7434 23.5625 10.6432 23.6042 10.5387 23.6042H5.57294C5.46847 23.6042 5.36828 23.5625 5.29441 23.4882C5.22053 23.4139 5.17903 23.3132 5.17903 23.2082V21.5162C5.17903 21.4642 5.18922 21.4127 5.20902 21.3646C5.22881 21.3166 5.25783 21.2729 5.29441 21.2362C5.33098 21.1994 5.37441 21.1702 5.4222 21.1503C5.46999 21.1304 5.52121 21.1202 5.57294 21.1202H5.57402ZM14.4961 21.8924C14.5729 21.9697 14.6296 22.0648 14.6611 22.1694C14.6926 22.274 14.6979 22.3848 14.6767 22.492C14.6554 22.5992 14.6081 22.6994 14.539 22.7838C14.47 22.8682 14.3813 22.9342 14.2808 22.9759C14.1803 23.0176 14.0711 23.0337 13.963 23.0228C13.8548 23.0119 13.751 22.9744 13.6607 22.9135C13.5704 22.8526 13.4965 22.7703 13.4454 22.6738C13.3944 22.5773 13.3678 22.4697 13.3681 22.3604C13.3684 22.2291 13.4073 22.1009 13.4801 21.9919C13.5528 21.8829 13.656 21.798 13.7767 21.7479C13.8974 21.6979 14.0301 21.6849 14.1582 21.7106C14.2862 21.7363 14.4038 21.7995 14.4961 21.8924ZM14.0305 20.9049C14.3173 20.9049 14.5975 20.9904 14.8359 21.1505C15.0743 21.3106 15.2601 21.5382 15.3698 21.8045C15.4795 22.0708 15.5082 22.3638 15.4523 22.6465C15.3964 22.9292 15.2583 23.1888 15.0556 23.3926C14.8528 23.5964 14.5945 23.7352 14.3133 23.7915C14.0322 23.8477 13.7407 23.8188 13.4758 23.7085C13.2109 23.5982 12.9845 23.4115 12.8253 23.1718C12.666 22.9322 12.581 22.6504 12.581 22.3622C12.5814 21.9758 12.7343 21.6054 13.0061 21.3323C13.2778 21.0591 13.6462 20.9054 14.0305 20.9049ZM18.375 21.8924C18.4519 21.9697 18.5085 22.0648 18.54 22.1694C18.5715 22.274 18.5769 22.3848 18.5556 22.492C18.5343 22.5992 18.487 22.6994 18.418 22.7838C18.3489 22.8682 18.2602 22.9342 18.1597 22.9759C18.0593 23.0176 17.9501 23.0337 17.8419 23.0228C17.7338 23.0119 17.6299 22.9744 17.5397 22.9135C17.4494 22.8526 17.3754 22.7703 17.3244 22.6738C17.2733 22.5773 17.2468 22.4697 17.247 22.3604C17.2473 22.2291 17.2863 22.1009 17.359 21.9919C17.4317 21.8829 17.535 21.798 17.6556 21.7479C17.7763 21.6979 17.9091 21.6849 18.0371 21.7106C18.1651 21.7363 18.2827 21.7995 18.375 21.8924ZM17.9048 20.9027C18.1915 20.9027 18.4718 20.9882 18.7102 21.1483C18.9486 21.3085 19.1344 21.5361 19.2441 21.8023C19.3538 22.0686 19.3825 22.3616 19.3266 22.6443C19.2706 22.927 19.1326 23.1867 18.9298 23.3905C18.7271 23.5943 18.4688 23.7331 18.1876 23.7893C17.9064 23.8455 17.615 23.8167 17.3501 23.7064C17.0852 23.5961 16.8588 23.4093 16.6995 23.1696C16.5403 22.93 16.4552 22.6482 16.4552 22.36C16.4557 21.9737 16.6086 21.6033 16.8803 21.3301C17.1521 21.0569 17.5205 20.9032 17.9048 20.9027ZM7.09702 27.1207C6.99254 27.1207 6.89235 27.0789 6.81848 27.0047C6.74461 26.9304 6.70311 26.8297 6.70311 26.7247C6.70311 26.6196 6.74461 26.5189 6.81848 26.4446C6.89235 26.3704 6.99254 26.3287 7.09702 26.3287H13.3004C13.4049 26.3287 13.505 26.3704 13.5789 26.4446C13.6528 26.5189 13.6943 26.6196 13.6943 26.7247C13.6943 26.8297 13.6528 26.9304 13.5789 27.0047C13.505 27.0789 13.4049 27.1207 13.3004 27.1207H7.09702ZM7.09702 29.4484C6.99254 29.4484 6.89235 29.4067 6.81848 29.3324C6.74461 29.2582 6.70311 29.1574 6.70311 29.0524C6.70311 28.9474 6.74461 28.8467 6.81848 28.7724C6.89235 28.6981 6.99254 28.6564 7.09702 28.6564H15.4905C15.595 28.6564 15.6952 28.6981 15.7691 28.7724C15.8429 28.8467 15.8844 28.9474 15.8844 29.0524C15.8844 29.1574 15.8429 29.2582 15.7691 29.3324C15.6952 29.4067 15.595 29.4484 15.4905 29.4484H7.09702Z" fill="white"/>
</svg>
