<svg width="30" height="26" viewBox="0 0 30 26" fill="none" xmlns="http://www.w3.org/2000/svg">
<path fill-rule="evenodd" clip-rule="evenodd" d="M6.203 18.3072H7.92546C8.02993 18.3072 8.13013 18.3489 8.204 18.4232C8.27787 18.4975 8.31937 18.5982 8.31937 18.7032V23.5798C8.31937 23.6848 8.27787 23.7855 8.204 23.8598C8.13013 23.9341 8.02993 23.9758 7.92546 23.9758H6.203C6.15127 23.9758 6.10005 23.9655 6.05226 23.9456C6.00447 23.9257 5.96104 23.8966 5.92447 23.8598C5.88789 23.823 5.85887 23.7794 5.83908 23.7313C5.81928 23.6833 5.80909 23.6318 5.80909 23.5798V18.7036C5.80909 18.6516 5.81928 18.6001 5.83908 18.552C5.85887 18.504 5.88789 18.4603 5.92447 18.4236C5.96104 18.3868 6.00447 18.3576 6.05226 18.3377C6.10005 18.3178 6.15127 18.3072 6.203 18.3072ZM7.5312 19.0992H6.59691V23.1834H7.53048V19.1003L7.5312 19.0992ZM3.11725 20.8632H4.83972C4.94419 20.8632 5.04438 20.9049 5.11825 20.9792C5.19212 21.0535 5.23363 21.1542 5.23363 21.2592V23.5798C5.23363 23.6848 5.19212 23.7855 5.11825 23.8598C5.04438 23.9341 4.94419 23.9758 4.83972 23.9758H3.11725C3.01278 23.9758 2.91259 23.9341 2.83872 23.8598C2.76485 23.7855 2.72334 23.6848 2.72334 23.5798V21.2592C2.72334 21.1542 2.76485 21.0535 2.83872 20.9792C2.91259 20.9049 3.01278 20.8632 3.11725 20.8632ZM4.44545 21.6552H3.51188V23.1827H4.44545V21.6559V21.6552ZM9.28911 19.4304H11.0112C11.1157 19.4304 11.2159 19.4721 11.2897 19.5464C11.3636 19.6207 11.4051 19.7214 11.4051 19.8264V23.5798C11.4051 23.6848 11.3636 23.7855 11.2897 23.8598C11.2159 23.9341 11.1157 23.9758 11.0112 23.9758H9.28911C9.18464 23.9758 9.08444 23.9341 9.01057 23.8598C8.9367 23.7855 8.8952 23.6848 8.8952 23.5798V19.8279C8.8952 19.7228 8.9367 19.6221 9.01057 19.5478C9.08444 19.4736 9.18464 19.4319 9.28911 19.4319V19.4304ZM10.6169 20.2224H9.68338V23.1816H10.6169V20.2224ZM12.3749 16.6149H14.097C14.2014 16.6149 14.3016 16.6566 14.3755 16.7308C14.4494 16.8051 14.4909 16.9058 14.4909 17.0109V23.5798C14.4909 23.6848 14.4494 23.7855 14.3755 23.8598C14.3016 23.9341 14.2014 23.9758 14.097 23.9758H12.3749C12.2704 23.9758 12.1702 23.9341 12.0963 23.8598C12.0224 23.7855 11.9809 23.6848 11.9809 23.5798V17.013C11.9809 16.908 12.0224 16.8073 12.0963 16.733C12.1702 16.6587 12.2704 16.617 12.3749 16.617V16.6149ZM13.7027 17.4069H12.7691V23.1834H13.7027V17.4097V17.4069ZM12.1331 13.4274L12.9568 13.395L9.47353 16.5223L6.46549 15.2688C6.39347 15.2387 6.31419 15.2308 6.23769 15.2461C6.16119 15.2613 6.09091 15.2991 6.03577 15.3545L2.60553 18.5801C2.52908 18.6517 2.48405 18.7509 2.48036 18.8559C2.47666 18.9609 2.5146 19.063 2.58583 19.1399C2.65706 19.2168 2.75575 19.262 2.86018 19.2657C2.96461 19.2695 3.06622 19.2313 3.14268 19.1597L6.40139 16.0975L9.40155 17.3475C9.47009 17.3757 9.54515 17.3839 9.61812 17.3711C9.69109 17.3584 9.75901 17.3252 9.81408 17.2755L13.6776 13.8069L13.717 14.745C13.7158 14.7991 13.7255 14.8529 13.7457 14.903C13.7659 14.9531 13.7961 14.9986 13.8345 15.0365C13.8728 15.0745 13.9185 15.1041 13.9687 15.1236C14.0189 15.1432 14.0725 15.1521 14.1262 15.15C14.18 15.1479 14.2328 15.1347 14.2813 15.1113C14.3298 15.0879 14.373 15.0548 14.4083 15.0139C14.4436 14.9731 14.4701 14.9254 14.4864 14.8738C14.5026 14.8222 14.5082 14.7679 14.5027 14.7141L14.4286 12.9403C14.4243 12.8359 14.3791 12.7375 14.3029 12.6664C14.2267 12.5953 14.1256 12.5574 14.0218 12.5609L12.1059 12.6354C12.0015 12.6391 11.9027 12.6843 11.8314 12.7612C11.7601 12.8381 11.7221 12.9403 11.7258 13.0453C11.7295 13.1503 11.7745 13.2496 11.8509 13.3212C11.9274 13.3929 12.029 13.4311 12.1335 13.4274H12.1331ZM17.8205 8.27582C17.7438 8.27105 17.6702 8.24383 17.6087 8.19751C17.5472 8.1512 17.5005 8.08782 17.4744 8.01517C17.4483 7.94252 17.4438 7.86378 17.4617 7.78865C17.4795 7.71351 17.5188 7.64526 17.5748 7.5923C17.6307 7.53934 17.7008 7.50398 17.7765 7.49058C17.8522 7.47718 17.9301 7.48633 18.0007 7.51689C18.0712 7.54744 18.1314 7.59809 18.1737 7.66257C18.216 7.72706 18.2386 7.80258 18.2387 7.87982C18.2388 7.93395 18.2279 7.98753 18.2066 8.03724C18.1853 8.08695 18.1541 8.13175 18.1149 8.16886C18.0757 8.20597 18.0294 8.23461 17.9787 8.25301C17.9281 8.2714 17.8742 8.27917 17.8205 8.27582ZM19.9154 8.27582C19.8109 8.27582 19.7107 8.2341 19.6368 8.15984C19.563 8.08557 19.5215 7.98485 19.5215 7.87982C19.5215 7.7748 19.563 7.67407 19.6368 7.59981C19.7107 7.52554 19.8109 7.48382 19.9154 7.48382H25.0441C25.1485 7.48382 25.2487 7.52554 25.3226 7.59981C25.3965 7.67407 25.438 7.7748 25.438 7.87982C25.438 7.98485 25.3965 8.08557 25.3226 8.15984C25.2487 8.2341 25.1485 8.27582 25.0441 8.27582H19.9154ZM17.8205 10.3638C17.7438 10.359 17.6702 10.3318 17.6087 10.2855C17.5472 10.2392 17.5005 10.1758 17.4744 10.1032C17.4483 10.0305 17.4438 9.95178 17.4617 9.87665C17.4795 9.80151 17.5188 9.73326 17.5748 9.6803C17.6307 9.62734 17.7008 9.59198 17.7765 9.57858C17.8522 9.56518 17.9301 9.57433 18.0007 9.60489C18.0712 9.63545 18.1314 9.68609 18.1737 9.75057C18.216 9.81506 18.2386 9.89058 18.2387 9.96782C18.2388 10.022 18.2279 10.0755 18.2066 10.1252C18.1853 10.175 18.1541 10.2197 18.1149 10.2569C18.0757 10.294 18.0294 10.3226 17.9787 10.341C17.9281 10.3594 17.8742 10.3672 17.8205 10.3638ZM19.9154 10.3638C19.8109 10.3638 19.7107 10.3221 19.6368 10.2478C19.563 10.1736 19.5215 10.0728 19.5215 9.96782C19.5215 9.8628 19.563 9.76207 19.6368 9.68781C19.7107 9.61354 19.8109 9.57182 19.9154 9.57182H25.0441C25.1485 9.57182 25.2487 9.61354 25.3226 9.68781C25.3965 9.76207 25.438 9.8628 25.438 9.96782C25.438 10.0728 25.3965 10.1736 25.3226 10.2478C25.2487 10.3221 25.1485 10.3638 25.0441 10.3638H19.9154ZM17.8205 12.4518C17.7438 12.447 17.6702 12.4198 17.6087 12.3735C17.5472 12.3272 17.5005 12.2638 17.4744 12.1912C17.4483 12.1185 17.4438 12.0398 17.4617 11.9646C17.4795 11.8895 17.5188 11.8213 17.5748 11.7683C17.6307 11.7153 17.7008 11.68 17.7765 11.6666C17.8522 11.6532 17.9301 11.6623 18.0007 11.6929C18.0712 11.7234 18.1314 11.7741 18.1737 11.8386C18.216 11.9031 18.2386 11.9786 18.2387 12.0558C18.2388 12.11 18.2279 12.1635 18.2066 12.2132C18.1853 12.263 18.1541 12.3077 18.1149 12.3449C18.0757 12.382 18.0294 12.4106 17.9787 12.429C17.9281 12.4474 17.8742 12.4552 17.8205 12.4518ZM19.9154 12.4518C19.8109 12.4518 19.7107 12.4101 19.6368 12.3358C19.563 12.2616 19.5215 12.1608 19.5215 12.0558C19.5215 11.9508 19.563 11.8501 19.6368 11.7758C19.7107 11.7015 19.8109 11.6598 19.9154 11.6598H25.0441C25.1485 11.6598 25.2487 11.7015 25.3226 11.7758C25.3965 11.8501 25.438 11.9508 25.438 12.0558C25.438 12.1608 25.3965 12.2616 25.3226 12.3358C25.2487 12.4101 25.1485 12.4518 25.0441 12.4518H19.9154ZM22.4274 19.3401L23.351 18.6708V17.4155C23.1474 17.4537 22.9556 17.5395 22.7911 17.666C22.6266 17.7925 22.4941 17.9561 22.4041 18.1437C22.3142 18.3312 22.2695 18.5374 22.2735 18.7456C22.2776 18.9537 22.3303 19.158 22.4274 19.3419V19.3401ZM24.1399 16.3121C24.5432 16.3749 24.926 16.533 25.2566 16.7736C25.5873 17.0141 25.8565 17.33 26.042 17.6955C26.2275 18.061 26.324 18.4655 26.3236 18.8759C26.3233 19.2862 26.226 19.6905 26.0399 20.0557C25.8538 20.4208 25.5841 20.7363 25.253 20.9763C24.9219 21.2162 24.5388 21.3737 24.1354 21.4357C23.7319 21.4978 23.3196 21.4627 22.9323 21.3333C22.545 21.2039 22.1937 20.984 21.9075 20.6915L23.9486 19.2137C24.0074 19.1786 24.056 19.1288 24.0898 19.0691C24.1236 19.0093 24.1413 18.9418 24.1413 18.8731V16.3121H24.1399ZM21.4899 18.8875L19.3055 16.6915H16.1471C16.0426 16.6915 15.9424 16.6498 15.8685 16.5756C15.7947 16.5013 15.7532 16.4006 15.7532 16.2955C15.7532 16.1905 15.7947 16.0898 15.8685 16.0155C15.9424 15.9413 16.0426 15.8995 16.1471 15.8995H19.4713C19.5231 15.8995 19.5745 15.9098 19.6223 15.9297C19.6702 15.9497 19.7137 15.9789 19.7503 16.0158L21.6403 17.9155C21.7834 17.5644 22.0176 17.2582 22.3185 17.0291C22.6194 16.8 22.976 16.6563 23.351 16.6131V15.8862C23.351 15.7812 23.3925 15.6805 23.4664 15.6062C23.5402 15.5319 23.6404 15.4902 23.7449 15.4902C24.3215 15.49 24.8884 15.6387 25.3914 15.922C25.8944 16.2054 26.3166 16.6138 26.6175 17.1083C26.9184 17.6027 27.0879 18.1666 27.1098 18.7458C27.1317 19.325 27.0052 19.9002 26.7425 20.4162C26.4797 20.9321 26.0896 21.3716 25.6094 21.6925C25.1292 22.0133 24.5751 22.2048 24.0002 22.2486C23.4252 22.2923 22.8488 22.1869 22.326 21.9423C21.8032 21.6978 21.3517 21.3224 21.0147 20.8521C20.9541 20.7669 20.9294 20.6611 20.9462 20.5577C20.963 20.4544 21.0198 20.3619 21.1043 20.3005L21.7846 19.8073C21.617 19.5283 21.5162 19.2139 21.4903 18.889L21.4899 18.8875ZM28.9348 6.1601H0.874832V24.6472H28.9348V6.1601ZM0.0859375 5.7641V25.0435C0.0859375 25.1486 0.127439 25.2493 0.201311 25.3236C0.275184 25.3978 0.375376 25.4395 0.479848 25.4395H29.3291C29.4336 25.4395 29.5338 25.3978 29.6076 25.3236C29.6815 25.2493 29.723 25.1486 29.723 25.0435V2.4233C29.7218 1.92952 29.5261 1.45632 29.1787 1.1072C28.8314 0.758078 28.3607 0.561443 27.8695 0.560303H1.93946C1.44829 0.561443 0.97755 0.758078 0.630202 1.1072C0.282855 1.45632 0.087167 1.92952 0.0859375 2.4233V5.7641ZM28.9348 5.3681H0.874832V2.4233C0.875963 2.1398 0.988493 1.86823 1.18791 1.66776C1.38732 1.46729 1.65745 1.35416 1.93946 1.35302H27.8702C28.1522 1.35416 28.4223 1.46729 28.6218 1.66776C28.8212 1.86823 28.9337 2.1398 28.9348 2.4233V5.3681ZM27.7001 2.80166C27.8046 2.80166 27.9048 2.84338 27.9786 2.91765C28.0525 2.99191 28.094 3.09264 28.094 3.19766C28.094 3.30269 28.0525 3.40341 27.9786 3.47768C27.9048 3.55194 27.8046 3.59366 27.7001 3.59366H18.9707C18.8662 3.59366 18.766 3.55194 18.6922 3.47768C18.6183 3.40341 18.5768 3.30269 18.5768 3.19766C18.5768 3.09264 18.6183 2.99191 18.6922 2.91765C18.766 2.84338 18.8662 2.80166 18.9707 2.80166H27.7001ZM7.14516 2.91218V3.81002H2.96721V2.9111L7.14516 2.91218ZM2.57402 2.12018H7.53872C7.59044 2.12018 7.64167 2.13043 7.68946 2.15033C7.73725 2.17023 7.78067 2.1994 7.81725 2.23617C7.85383 2.27294 7.88285 2.3166 7.90264 2.36464C7.92244 2.41269 7.93263 2.46418 7.93263 2.51618V4.20818C7.93263 4.31321 7.89112 4.41393 7.81725 4.4882C7.74338 4.56246 7.64319 4.60418 7.53872 4.60418H2.57294C2.46847 4.60418 2.36828 4.56246 2.29441 4.4882C2.22053 4.41393 2.17903 4.31321 2.17903 4.20818V2.51618C2.17903 2.46418 2.18922 2.41269 2.20902 2.36464C2.22881 2.3166 2.25783 2.27294 2.29441 2.23617C2.33098 2.1994 2.37441 2.17023 2.4222 2.15033C2.46999 2.13043 2.52121 2.12018 2.57294 2.12018H2.57402ZM11.4961 2.89238C11.5729 2.96968 11.6296 3.06485 11.6611 3.16944C11.6926 3.27404 11.6979 3.38483 11.6767 3.492C11.6554 3.59917 11.6081 3.6994 11.539 3.7838C11.47 3.86821 11.3813 3.93418 11.2808 3.97587C11.1803 4.01756 11.0712 4.03368 10.963 4.0228C10.8548 4.01192 10.751 3.97438 10.6607 3.9135C10.5704 3.85262 10.4965 3.77029 10.4454 3.67381C10.3944 3.57732 10.3678 3.46967 10.3681 3.36038C10.3684 3.22913 10.4073 3.10091 10.4801 2.9919C10.5528 2.8829 10.656 2.798 10.7767 2.74793C10.8974 2.69786 11.0301 2.68486 11.1582 2.71057C11.2862 2.73628 11.4038 2.79954 11.4961 2.89238ZM11.0305 1.9049C11.3173 1.9049 11.5975 1.99037 11.8359 2.1505C12.0743 2.31063 12.2601 2.53822 12.3698 2.80451C12.4795 3.07079 12.5082 3.3638 12.4523 3.64648C12.3964 3.92917 12.2583 4.18883 12.0556 4.39264C11.8528 4.59644 11.5945 4.73523 11.3133 4.79146C11.0322 4.84769 10.7407 4.81883 10.4758 4.70853C10.2109 4.59824 9.98454 4.41145 9.82526 4.1718C9.66598 3.93216 9.58096 3.65041 9.58096 3.36218C9.58143 2.97583 9.73431 2.60545 10.0061 2.33226C10.2778 2.05907 10.6462 1.90538 11.0305 1.9049ZM15.375 2.89238C15.4519 2.96968 15.5085 3.06485 15.54 3.16944C15.5715 3.27404 15.5769 3.38483 15.5556 3.492C15.5343 3.59917 15.487 3.6994 15.418 3.7838C15.3489 3.86821 15.2602 3.93418 15.1597 3.97587C15.0593 4.01756 14.9501 4.03368 14.8419 4.0228C14.7338 4.01192 14.6299 3.97438 14.5397 3.9135C14.4494 3.85262 14.3754 3.77029 14.3244 3.67381C14.2733 3.57732 14.2468 3.46967 14.247 3.36038C14.2473 3.22913 14.2863 3.10091 14.359 2.9919C14.4317 2.8829 14.535 2.798 14.6556 2.74793C14.7763 2.69786 14.9091 2.68486 15.0371 2.71057C15.1651 2.73628 15.2827 2.79954 15.375 2.89238ZM14.9048 1.90274C15.1915 1.90274 15.4718 1.98821 15.7102 2.14834C15.9486 2.30847 16.1344 2.53606 16.2441 2.80235C16.3538 3.06863 16.3825 3.36164 16.3266 3.64432C16.2706 3.92701 16.1326 4.18667 15.9298 4.39048C15.7271 4.59428 15.4688 4.73307 15.1876 4.7893C14.9064 4.84553 14.615 4.81667 14.3501 4.70637C14.0852 4.59608 13.8588 4.40929 13.6995 4.16964C13.5403 3.93 13.4552 3.64825 13.4552 3.36002C13.4557 2.97367 13.6086 2.60329 13.8803 2.3301C14.1521 2.05691 14.5205 1.90322 14.9048 1.90274ZM4.09702 8.12066C3.99254 8.12066 3.89235 8.07894 3.81848 8.00468C3.74461 7.93041 3.70311 7.82969 3.70311 7.72466C3.70311 7.61964 3.74461 7.51891 3.81848 7.44465C3.89235 7.37038 3.99254 7.32866 4.09702 7.32866H10.3004C10.4049 7.32866 10.505 7.37038 10.5789 7.44465C10.6528 7.51891 10.6943 7.61964 10.6943 7.72466C10.6943 7.82969 10.6528 7.93041 10.5789 8.00468C10.505 8.07894 10.4049 8.12066 10.3004 8.12066H4.09702ZM4.09702 10.4484C3.99254 10.4484 3.89235 10.4067 3.81848 10.3324C3.74461 10.2582 3.70311 10.1574 3.70311 10.0524C3.70311 9.9474 3.74461 9.84667 3.81848 9.77241C3.89235 9.69814 3.99254 9.65642 4.09702 9.65642H12.4905C12.595 9.65642 12.6952 9.69814 12.7691 9.77241C12.8429 9.84667 12.8844 9.9474 12.8844 10.0524C12.8844 10.1574 12.8429 10.2582 12.7691 10.3324C12.6952 10.4067 12.595 10.4484 12.4905 10.4484H4.09702Z" fill="#004A8D"/>
</svg>
